<?xml version="1.0" encoding="UTF-8"?>
<svg xmlns="http://www.w3.org/2000/svg" xmlns:xlink="http://www.w3.org/1999/xlink" width="300px" height="49px" viewBox="0 0 36 6" version="1.1">
<g id="surface1">
<path style=" stroke:none;fill-rule:nonzero;fill:rgb(6.666667%,6.666667%,6.666667%);fill-opacity:1;" d="M 3.988281 2.957031 C 3.949219 2.9375 3.925781 2.902344 3.921875 2.859375 C 3.917969 2.8125 3.9375 2.773438 3.972656 2.746094 C 4.335938 2.496094 4.550781 2.070312 4.535156 1.621094 L 4.535156 1.601562 C 4.542969 1.234375 4.402344 0.878906 4.140625 0.621094 C 3.730469 0.253906 3.195312 0.0703125 2.652344 0.109375 L 0.125 0.109375 C 0.0898438 0.105469 0.0585938 0.121094 0.0351562 0.144531 C 0.0117188 0.164062 0 0.195312 0 0.230469 L 0 5.769531 C 0 5.839844 0.0546875 5.894531 0.125 5.894531 L 2.710938 5.894531 C 4 5.894531 4.851562 5.363281 4.851562 4.308594 L 4.851562 4.289062 C 4.878906 3.703125 4.53125 3.164062 3.988281 2.957031 Z M 1.234375 1.347656 C 1.234375 1.277344 1.289062 1.222656 1.355469 1.222656 L 2.464844 1.222656 C 2.996094 1.222656 3.289062 1.4375 3.289062 1.816406 L 3.289062 1.835938 C 3.289062 2.265625 2.9375 2.449219 2.382812 2.449219 L 1.347656 2.449219 C 1.277344 2.449219 1.222656 2.390625 1.222656 2.324219 Z M 3.613281 4.148438 C 3.613281 4.578125 3.277344 4.777344 2.722656 4.777344 L 1.347656 4.777344 C 1.3125 4.777344 1.28125 4.765625 1.257812 4.742188 C 1.234375 4.71875 1.222656 4.6875 1.222656 4.65625 L 1.222656 3.628906 C 1.222656 3.59375 1.234375 3.5625 1.257812 3.539062 C 1.28125 3.515625 1.3125 3.503906 1.347656 3.503906 L 2.675781 3.503906 C 3.320312 3.503906 3.605469 3.753906 3.605469 4.132812 Z M 3.613281 4.148438 "/>
<path style=" stroke:none;fill-rule:nonzero;fill:rgb(6.666667%,6.666667%,6.666667%);fill-opacity:1;" d="M 12.777344 0.167969 L 11.53125 2.257812 C 11.507812 2.292969 11.46875 2.316406 11.425781 2.316406 C 11.382812 2.316406 11.34375 2.292969 11.320312 2.257812 L 10.109375 0.167969 C 10.085938 0.128906 10.039062 0.105469 9.992188 0.109375 L 5.195312 0.109375 C 5.128906 0.109375 5.074219 0.164062 5.074219 0.230469 L 5.074219 5.769531 C 5.074219 5.835938 5.128906 5.894531 5.195312 5.894531 L 10.246094 5.894531 C 10.3125 5.894531 10.367188 5.835938 10.367188 5.769531 L 10.367188 4.886719 C 10.367188 4.816406 10.3125 4.761719 10.246094 4.761719 L 6.441406 4.761719 C 6.375 4.761719 6.320312 4.707031 6.320312 4.636719 L 6.320312 3.671875 C 6.320312 3.601562 6.375 3.546875 6.441406 3.546875 L 8.078125 3.546875 C 8.144531 3.546875 8.199219 3.488281 8.199219 3.421875 L 8.199219 2.539062 C 8.199219 2.46875 8.148438 2.414062 8.078125 2.414062 L 6.441406 2.414062 C 6.375 2.414062 6.320312 2.359375 6.320312 2.289062 L 6.320312 1.363281 C 6.320312 1.296875 6.375 1.238281 6.441406 1.238281 L 9.238281 1.238281 C 9.28125 1.238281 9.316406 1.261719 9.339844 1.296875 L 10.769531 3.582031 C 10.78125 3.601562 10.789062 3.625 10.789062 3.648438 L 10.789062 5.769531 C 10.789062 5.835938 10.84375 5.894531 10.910156 5.894531 L 11.921875 5.894531 C 11.992188 5.894531 12.042969 5.835938 12.042969 5.769531 L 12.042969 3.621094 C 12.042969 3.597656 12.050781 3.578125 12.0625 3.558594 L 14.117188 0.308594 C 14.148438 0.269531 14.15625 0.214844 14.132812 0.171875 C 14.109375 0.128906 14.0625 0.101562 14.015625 0.109375 L 12.878906 0.109375 C 12.835938 0.109375 12.796875 0.128906 12.777344 0.167969 Z M 12.777344 0.167969 "/>
<path style=" stroke:none;fill-rule:nonzero;fill:rgb(6.666667%,6.666667%,6.666667%);fill-opacity:1;" d="M 16.371094 0.0078125 C 15.574219 -0.015625 14.800781 0.292969 14.226562 0.855469 C 13.652344 1.421875 13.332031 2.199219 13.332031 3.007812 C 13.328125 3.8125 13.648438 4.585938 14.21875 5.148438 C 14.789062 5.710938 15.5625 6.011719 16.355469 5.980469 C 17.152344 6.003906 17.921875 5.703125 18.492188 5.140625 C 19.066406 4.582031 19.390625 3.8125 19.398438 3.007812 L 19.398438 2.992188 C 19.402344 2.183594 19.082031 1.410156 18.511719 0.847656 C 17.941406 0.28125 17.167969 -0.0195312 16.371094 0.0078125 Z M 18.085938 3.007812 C 18.105469 3.480469 17.929688 3.9375 17.609375 4.28125 C 17.285156 4.621094 16.835938 4.8125 16.371094 4.808594 C 15.902344 4.808594 15.453125 4.617188 15.125 4.273438 C 14.800781 3.929688 14.625 3.464844 14.644531 2.988281 L 14.644531 2.976562 C 14.625 2.5 14.800781 2.039062 15.125 1.699219 C 15.453125 1.355469 15.902344 1.167969 16.371094 1.171875 C 16.839844 1.171875 17.289062 1.367188 17.617188 1.707031 C 17.941406 2.050781 18.117188 2.515625 18.097656 2.988281 Z M 18.085938 3.007812 "/>
<path style=" stroke:none;fill-rule:nonzero;fill:rgb(6.666667%,6.666667%,6.666667%);fill-opacity:1;" d="M 23.316406 3.378906 L 20.894531 0.15625 C 20.871094 0.125 20.835938 0.109375 20.796875 0.109375 L 19.824219 0.109375 C 19.789062 0.105469 19.757812 0.121094 19.734375 0.144531 C 19.714844 0.164062 19.699219 0.195312 19.699219 0.230469 L 19.699219 5.769531 C 19.699219 5.839844 19.753906 5.894531 19.824219 5.894531 L 20.808594 5.894531 C 20.878906 5.894531 20.933594 5.839844 20.933594 5.769531 L 20.933594 2.582031 C 20.929688 2.527344 20.964844 2.480469 21.015625 2.460938 C 21.066406 2.445312 21.121094 2.464844 21.152344 2.507812 L 23.667969 5.84375 C 23.695312 5.875 23.730469 5.894531 23.769531 5.894531 L 24.65625 5.894531 C 24.722656 5.894531 24.777344 5.835938 24.777344 5.769531 L 24.777344 0.230469 C 24.777344 0.164062 24.722656 0.109375 24.65625 0.109375 L 23.667969 0.109375 C 23.601562 0.109375 23.546875 0.164062 23.546875 0.230469 L 23.546875 3.300781 C 23.570312 3.367188 23.535156 3.4375 23.46875 3.457031 C 23.402344 3.480469 23.335938 3.441406 23.316406 3.378906 Z M 23.316406 3.378906 "/>
<path style=" stroke:none;fill-rule:nonzero;fill:rgb(6.666667%,6.666667%,6.666667%);fill-opacity:1;" d="M 27.417969 0.109375 L 25.316406 0.109375 C 25.285156 0.105469 25.253906 0.121094 25.230469 0.144531 C 25.207031 0.164062 25.191406 0.195312 25.191406 0.230469 L 25.191406 5.769531 C 25.191406 5.839844 25.25 5.894531 25.316406 5.894531 L 27.417969 5.894531 C 29.214844 5.894531 30.453125 4.628906 30.453125 3 L 30.453125 2.984375 C 30.453125 1.355469 29.214844 0.109375 27.417969 0.109375 Z M 29.144531 3.015625 C 29.167969 3.484375 28.992188 3.941406 28.664062 4.273438 C 28.335938 4.601562 27.882812 4.773438 27.417969 4.746094 L 26.570312 4.746094 C 26.503906 4.746094 26.449219 4.6875 26.449219 4.621094 L 26.449219 1.371094 C 26.449219 1.300781 26.503906 1.246094 26.570312 1.246094 L 27.417969 1.246094 C 27.886719 1.21875 28.339844 1.394531 28.667969 1.730469 C 28.996094 2.0625 29.171875 2.523438 29.144531 2.996094 Z M 29.144531 3.015625 "/>
<path style=" stroke:none;fill-rule:nonzero;fill:rgb(6.666667%,6.666667%,6.666667%);fill-opacity:1;" d="M 32.128906 4.09375 L 34.535156 3.09375 C 34.582031 3.074219 34.609375 3.03125 34.609375 2.980469 C 34.609375 2.929688 34.582031 2.882812 34.535156 2.863281 L 32.128906 1.863281 C 32.085938 1.847656 32.054688 1.804688 32.050781 1.757812 L 32.050781 0.835938 C 32.054688 0.792969 32.074219 0.753906 32.109375 0.730469 C 32.144531 0.710938 32.1875 0.707031 32.226562 0.722656 L 35.921875 2.367188 C 35.96875 2.386719 35.996094 2.429688 35.996094 2.480469 L 35.996094 3.460938 C 35.996094 3.507812 35.96875 3.554688 35.921875 3.574219 L 32.226562 5.21875 C 32.1875 5.234375 32.144531 5.230469 32.109375 5.207031 C 32.074219 5.183594 32.050781 5.144531 32.050781 5.101562 L 32.050781 4.210938 C 32.054688 4.160156 32.082031 4.113281 32.128906 4.09375 Z M 32.128906 4.09375 "/>
</g>
</svg>
