<?xml version="1.0" encoding="utf-8"?>
<!-- Generator: Adobe Illustrator 27.0.1, SVG Export Plug-In . SVG Version: 6.00 Build 0)  -->
<svg version="1.1" id="Layer_1" xmlns="http://www.w3.org/2000/svg" xmlns:xlink="http://www.w3.org/1999/xlink" x="0px" y="0px"
	 viewBox="0 0 146 23.9" style="enable-background:new 0 0 146 23.9;" xml:space="preserve">
<style type="text/css">
	.st0{fill:#DFDCD5;}
</style>
<g id="Layer_2_00000125592280908683011550000000927151504962946176_">
	<g id="Layer_1-2">
		<path class="st0" d="M16.2,11.8c-0.2-0.1-0.3-0.4-0.2-0.7c0-0.1,0.1-0.1,0.2-0.2c1.5-1,2.3-2.7,2.3-4.5V6.4c0-1.5-0.5-2.9-1.6-3.9
			c-1.7-1.5-3.8-2.2-6-2H0.5C0.2,0.4,0,0.6,0,0.9c0,0,0,0,0,0V23c0,0.3,0.2,0.5,0.5,0.5H11c5.2,0,8.7-2.1,8.7-6.4v-0.1
			C19.8,14.8,18.4,12.6,16.2,11.8z M5,5.4c0-0.3,0.2-0.5,0.5-0.5H10c2.1,0,3.3,0.9,3.3,2.4v0.1c0,1.7-1.4,2.4-3.7,2.4H5.5
			C5.2,9.8,5,9.5,5,9.3L5,5.4z M14.7,16.6c0,1.7-1.4,2.5-3.6,2.5H5.5c-0.3,0-0.5-0.2-0.5-0.5c0,0,0,0,0,0v-4.1C5,14.2,5.2,14,5.4,14
			c0,0,0,0,0,0h5.4C13.5,14,14.6,15,14.7,16.6L14.7,16.6z"/>
		<path class="st0" d="M51.8,0.6l-5,8.4c-0.1,0.2-0.5,0.3-0.7,0.2C46,9.1,46,9.1,45.9,9L41,0.6c-0.1-0.2-0.3-0.3-0.5-0.2H21.1
			c-0.3,0-0.5,0.2-0.5,0.5V23c0,0.3,0.2,0.5,0.5,0.5h20.5c0.3,0,0.5-0.2,0.5-0.5v-3.5c0-0.3-0.2-0.5-0.5-0.5l0,0H26.1
			c-0.3,0-0.5-0.2-0.5-0.5v-3.9c0-0.3,0.2-0.5,0.5-0.5h6.6c0.3,0,0.5-0.2,0.5-0.5v0v-3.5c0-0.3-0.2-0.5-0.5-0.5h-6.6
			c-0.3,0-0.5-0.2-0.5-0.5V5.4c0-0.3,0.2-0.5,0.5-0.5h11.3c0.2,0,0.3,0.1,0.4,0.2l5.8,9.1c0.1,0.1,0.1,0.2,0.1,0.3v8.5
			c0,0.3,0.2,0.5,0.5,0.5h4.1c0.3,0,0.5-0.2,0.5-0.5v-8.6c0-0.1,0-0.2,0.1-0.3l8.3-13c0.2-0.2,0.1-0.5-0.1-0.7
			c-0.1-0.1-0.2-0.1-0.4-0.1h-4.6C52.1,0.4,51.9,0.5,51.8,0.6z"/>
		<path class="st0" d="M66.4,0c-6.6-0.2-12.1,5-12.3,11.7c0,0.1,0,0.2,0,0.3l0,0c0,6.5,5.2,11.9,11.8,11.9c0.2,0,0.3,0,0.5,0
			c6.6,0.2,12.1-5,12.3-11.7c0-0.1,0-0.2,0-0.2v-0.1C78.7,5.4,73.4,0,66.9,0C66.7,0,66.6,0,66.4,0z M73.3,12c0.2,3.8-2.8,7-6.6,7.2
			c-0.1,0-0.2,0-0.3,0c-3.9,0-7-3.1-7-7c0-0.1,0-0.2,0-0.3v-0.1c-0.2-3.8,2.8-7,6.6-7.2c0.1,0,0.3,0,0.4,0c3.9,0,7,3.1,7,7
			C73.4,11.7,73.4,11.8,73.3,12L73.3,12z"/>
		<path class="st0" d="M94.6,13.5L84.8,0.6c-0.1-0.1-0.2-0.2-0.4-0.2h-3.9c-0.3,0-0.5,0.2-0.5,0.5c0,0,0,0,0,0V23
			c0,0.3,0.2,0.5,0.5,0.5h4c0.3,0,0.5-0.2,0.5-0.5V10.3c0-0.3,0.2-0.5,0.5-0.5c0.2,0,0.3,0.1,0.4,0.2L96,23.4
			c0.1,0.1,0.2,0.2,0.4,0.2h3.6c0.3,0,0.5-0.2,0.5-0.5V0.9c0-0.3-0.2-0.5-0.5-0.5h-4c-0.3,0-0.5,0.2-0.5,0.5v12.3
			c0.1,0.3-0.1,0.5-0.3,0.6S94.6,13.7,94.6,13.5z"/>
		<path class="st0" d="M111.2,0.4h-8.5c-0.3,0-0.5,0.2-0.5,0.5c0,0,0,0,0,0V23c0,0.3,0.2,0.5,0.5,0.5h8.5c7.3,0,12.3-5.1,12.3-11.6
			v-0.1C123.5,5.4,118.5,0.4,111.2,0.4z M118.2,12c0.2,3.6-2.6,6.7-6.3,6.9c-0.2,0-0.5,0-0.7,0h-3.4c-0.3,0-0.5-0.2-0.5-0.5v-13
			c0-0.3,0.2-0.5,0.5-0.5h3.4c3.7-0.2,6.8,2.6,7,6.3C118.2,11.5,118.2,11.7,118.2,12L118.2,12z"/>
		<path class="st0" d="M130.3,16.4l9.8-4c0.3-0.1,0.4-0.4,0.3-0.7c-0.1-0.1-0.1-0.2-0.3-0.3l-9.8-4C130.1,7.4,130,7.2,130,7V3.3
			c0-0.3,0.2-0.5,0.5-0.5c0.1,0,0.1,0,0.2,0l15,6.6c0.2,0.1,0.3,0.3,0.3,0.4v3.9c0,0.2-0.1,0.4-0.3,0.4l-15,6.6
			c-0.3,0.1-0.5,0-0.7-0.3c0-0.1,0-0.1,0-0.2v-3.6C130,16.6,130.1,16.4,130.3,16.4z"/>
	</g>
</g>
</svg>
