<svg xmlns="http://www.w3.org/2000/svg" width="79" height="69" viewBox="0 0 79 69" fill="none">
<path d="M78.9266 0.8479V12.6799C75.2146 13.2986 72.1986 14.8452 69.8786 17.3199C67.5586 19.7946 65.7799 22.8879 64.5426 26.5999C63.4599 30.3119 62.9186 34.3332 62.9186 38.6639H77.3026V68.3599H47.8386V41.2159C47.8386 32.0906 49.3079 24.8212 52.2466 19.4079C55.1853 13.8399 58.9746 9.58657 63.6146 6.64791C68.4093 3.70924 73.5133 1.77591 78.9266 0.8479ZM32.0626 0.8479V12.6799C28.3506 13.2986 25.3346 14.8452 23.0146 17.3199C20.6946 19.7946 18.9159 22.8879 17.6786 26.5999C16.5959 30.3119 16.0546 34.3332 16.0546 38.6639H30.4386V68.3599H0.974609V41.2159C0.974609 32.0906 2.44394 24.8212 5.38261 19.4079C8.32128 13.8399 12.1106 9.58657 16.7506 6.64791C21.5453 3.70924 26.6493 1.77591 32.0626 0.8479Z" fill="#ffffff"/>
</svg>
