<svg width="20" height="21" viewBox="0 0 20 21" fill="none" xmlns="http://www.w3.org/2000/svg">
<path fill-rule="evenodd" clip-rule="evenodd" d="M8.64962 0.508381C8.62809 0.516205 8.56237 0.533183 8.50354 0.546132C8.36557 0.576529 8.14384 0.771586 8.08446 0.914847C8.05894 0.976423 7.98097 1.35844 7.91118 1.76377L7.78432 2.50073L7.30726 2.66339C7.0449 2.75286 6.61845 2.92887 6.35957 3.05448L5.8889 3.28287L5.54704 3.04287C4.54419 2.33869 4.57398 2.35622 4.34661 2.33736C4.16753 2.32249 4.10444 2.33595 3.96412 2.41893C3.8717 2.47358 3.36189 2.95543 2.83117 3.4897C1.5343 4.79525 1.55148 4.71935 2.30996 5.79381L2.75809 6.42858L2.53835 6.88536C2.41748 7.13659 2.24483 7.55558 2.15469 7.81647L1.9908 8.29081L1.25369 8.41757C0.848263 8.48732 0.466165 8.56521 0.404556 8.59072C0.265369 8.64834 0.0690748 8.86742 0.029268 9.00958C-0.009756 9.14897 -0.009756 11.8615 0.029268 12.0009C0.0690748 12.1431 0.265369 12.3622 0.404556 12.4198C0.466165 12.4453 0.848381 12.5232 1.25392 12.593L1.99127 12.7198L2.15402 13.1966C2.24354 13.4588 2.41964 13.885 2.54532 14.1438L2.77383 14.6142L2.53369 14.9559C1.82915 15.9582 1.84668 15.9284 1.82782 16.1557C1.81294 16.3347 1.82641 16.3977 1.90943 16.538C1.96411 16.6303 2.44621 17.1399 2.98077 17.6703C4.28699 18.9665 4.21106 18.9493 5.28608 18.1913L5.92119 17.7434L6.3782 17.963C6.62957 18.0838 7.04878 18.2563 7.30981 18.3464L7.7844 18.5102L7.91122 19.247C7.98101 19.6522 8.05894 20.0341 8.08446 20.0957C8.14211 20.2348 8.3613 20.431 8.50354 20.4707C8.64301 20.5098 11.357 20.5098 11.4965 20.4707C11.6387 20.431 11.8579 20.2348 11.9155 20.0957C11.9411 20.0341 12.019 19.6521 12.0888 19.2467L12.2157 18.5098L12.6927 18.3471C12.9551 18.2576 13.3815 18.0816 13.6404 17.956L14.1111 17.7276L14.453 17.9676C15.4558 18.6718 15.426 18.6543 15.6534 18.6731C15.8325 18.688 15.8956 18.6746 16.0359 18.5916C16.1283 18.5369 16.6381 18.0551 17.1688 17.5208C18.4657 16.2153 18.4485 16.2912 17.69 15.2167L17.2419 14.5819L17.4616 14.1251C17.5825 13.8739 17.7552 13.4549 17.8453 13.194L18.0092 12.7197L18.7463 12.5929C19.1517 12.5232 19.5338 12.4453 19.5954 12.4198C19.7346 12.3622 19.9309 12.1431 19.9707 12.0009C20.0098 11.8615 20.0098 9.14897 19.9707 9.00958C19.9309 8.86742 19.7346 8.64834 19.5954 8.59072C19.5338 8.56521 19.1516 8.48728 18.7461 8.41753L18.0087 8.29074L17.846 7.81393C17.7565 7.5517 17.5804 7.12548 17.4547 6.86674L17.2262 6.39631L17.4663 6.05463C18.1709 5.05231 18.1533 5.08208 18.1722 4.85483C18.1871 4.67585 18.1736 4.61279 18.0906 4.47254C18.0359 4.38017 17.5538 3.87062 17.0192 3.34018C15.713 2.04399 15.7889 2.06117 14.7139 2.81925L14.0788 3.26715L13.6218 3.04752C13.3704 2.92672 12.9512 2.75415 12.6902 2.66406L12.2156 2.50026L12.0906 1.77429C11.944 0.922827 11.9423 0.916411 11.8127 0.762549C11.5995 0.50932 11.6085 0.51065 10.0783 0.502004C9.31405 0.497701 8.67115 0.500557 8.64962 0.508381ZM10.6825 6.5576C11.4438 6.66566 12.2723 7.10416 12.8658 7.71323C13.197 8.05315 13.3894 8.32763 13.6026 8.76437C13.83 9.23022 13.937 9.60727 13.9885 10.1238C14.1079 11.3214 13.6658 12.5227 12.794 13.3695C12.4526 13.7012 12.1783 13.8931 11.7418 14.106C11.2757 14.3332 10.8985 14.4402 10.3816 14.4917C9.64409 14.5651 8.93614 14.4365 8.25821 14.106C7.42226 13.6983 6.80273 13.0793 6.39695 12.2461C6.06652 11.5676 5.93806 10.8604 6.01149 10.1238C6.06296 9.60727 6.17001 9.23022 6.39738 8.76437C6.80524 7.92887 7.42461 7.30966 8.25821 6.9041C9.04381 6.52192 9.73493 6.42314 10.6825 6.5576Z" fill="#FF3C00"/>
</svg>
