<svg width="14" height="19" viewBox="0 0 14 19" fill="none" xmlns="http://www.w3.org/2000/svg">
<path d="M5.20329 13.447V12.1676C5.20329 11.5143 5.30869 10.9608 5.51951 10.5072C5.74949 10.0353 6.02738 9.62703 6.35318 9.28224C6.69815 8.91929 7.06229 8.60172 7.44559 8.32951C7.82888 8.03916 8.18344 7.75788 8.50924 7.48567C8.85421 7.19532 9.1321 6.87775 9.34292 6.53295C9.5729 6.18816 9.68789 5.79799 9.68789 5.36246C9.68789 5.16285 9.65914 4.93601 9.60164 4.68195C9.54415 4.42789 9.41958 4.1829 9.22793 3.94699C9.05544 3.69293 8.78713 3.49331 8.423 3.34814C8.05886 3.18481 7.57974 3.10315 6.98563 3.10315C6.33402 3.10315 5.80698 3.19389 5.40452 3.37536C5.02122 3.55683 4.72416 3.79274 4.51335 4.08309C4.3217 4.3553 4.18754 4.64565 4.11088 4.95415C4.05339 5.26265 4.02464 5.55301 4.02464 5.82521C4.02464 5.95224 4.02464 6.07927 4.02464 6.2063C4.02464 6.31519 4.03422 6.43314 4.05339 6.56017H0.11499C0.0958247 6.45129 0.0670773 6.31519 0.0287474 6.15186C0.00958245 5.98854 0 5.79799 0 5.58023C0 4.94508 0.0958248 4.34623 0.287474 3.78367C0.498289 3.22111 0.795346 2.71299 1.17864 2.25931C1.58111 1.78749 2.0794 1.38825 2.67351 1.0616C3.26763 0.716809 3.94798 0.453677 4.71458 0.272206C5.48118 0.0907353 6.33402 0 7.2731 0C8.07803 0 8.82546 0.0725881 9.5154 0.217764C10.2245 0.344794 10.8474 0.553485 11.384 0.843838C11.9398 1.11605 12.4093 1.45177 12.7926 1.851C13.1759 2.25024 13.473 2.71299 13.6838 3.23925C13.8946 3.76552 14 4.34623 14 4.98137C14 5.77985 13.8754 6.46036 13.6263 7.02292C13.3771 7.56734 13.0513 8.04823 12.6489 8.46562C12.2656 8.86485 11.8535 9.21872 11.4127 9.52722C10.9719 9.83572 10.5503 10.1442 10.1478 10.4527C9.76455 10.7431 9.44832 11.0606 9.19918 11.4054C8.95004 11.7502 8.82546 12.1676 8.82546 12.6576V13.447H5.20329ZM4.97331 19V15.1891H9.05544V19H4.97331Z" fill="#FF3C00"/>
</svg>
