<svg width="12" height="17" viewBox="0 0 12 17" fill="none" xmlns="http://www.w3.org/2000/svg">
<path d="M0.377062 12.2633L7.51355 8.91806C7.5795 8.88593 7.63574 8.83233 7.67527 8.76393C7.71479 8.69553 7.73586 8.61535 7.73586 8.53336C7.73586 8.45137 7.71479 8.37118 7.67527 8.30278C7.63574 8.23439 7.5795 8.18079 7.51355 8.14865L0.377062 4.80341C0.313608 4.77379 0.258709 4.72437 0.21863 4.66079C0.178551 4.5972 0.154908 4.52201 0.150393 4.44379V1.35781C0.151384 1.28896 0.167224 1.22146 0.196505 1.1613C0.225787 1.10114 0.267602 1.05018 0.318242 1.01295C0.368881 0.975712 0.426773 0.953357 0.486782 0.947865C0.546791 0.942374 0.607057 0.953916 0.662229 0.981468L11.6302 6.48439C11.695 6.51558 11.7504 6.56789 11.7894 6.63481C11.8284 6.70174 11.8493 6.78031 11.8495 6.86073V10.1391C11.8484 10.2193 11.8271 10.2974 11.7882 10.3641C11.7493 10.4308 11.6945 10.4833 11.6302 10.5154L0.662229 16.0183C0.606493 16.0462 0.545569 16.0576 0.484975 16.0517C0.42438 16.0458 0.366029 16.0227 0.315207 15.9845C0.264385 15.9464 0.222696 15.8943 0.193917 15.833C0.165138 15.7717 0.150181 15.7032 0.150393 15.6336V12.648C0.151689 12.5657 0.173779 12.4856 0.214 12.4173C0.254221 12.3491 0.310852 12.2956 0.377062 12.2633Z" fill="#FF3C00"/>
</svg>
