<svg xmlns="http://www.w3.org/2000/svg" viewBox="0 0 146.01 23.94"><defs><style>.cls-1{fill:#111;}</style></defs><g id="Layer_2" data-name="Layer 2"><g id="Layer_1-2" data-name="Layer 1"><path class="cls-1" d="M16.18,11.8a.49.49,0,0,1-.07-.84,5.24,5.24,0,0,0,2.28-4.51V6.38A5.31,5.31,0,0,0,16.8,2.45,8.33,8.33,0,0,0,10.75.4H.5A.49.49,0,0,0,0,.89V23.05a.5.5,0,0,0,.5.5H11c5.23,0,8.67-2.12,8.67-6.35v-.07A5.39,5.39,0,0,0,16.18,11.8ZM5,5.36a.5.5,0,0,1,.5-.5H10c2.15,0,3.34.86,3.34,2.38v.07c0,1.72-1.42,2.45-3.67,2.45H5.46a.5.5,0,0,1-.5-.5Zm9.66,11.21c0,1.72-1.36,2.51-3.61,2.51H5.46a.49.49,0,0,1-.5-.49V14.48a.49.49,0,0,1,.5-.49h5.39c2.61,0,3.77,1,3.77,2.51Z"/><path class="cls-1" d="M51.82.64,46.77,9a.5.5,0,0,1-.85,0L41,.64A.5.5,0,0,0,40.53.4H21.07a.49.49,0,0,0-.49.49V23.05a.5.5,0,0,0,.49.5H41.55a.5.5,0,0,0,.49-.5V19.51a.49.49,0,0,0-.49-.49H26.13a.5.5,0,0,1-.49-.5V14.65a.5.5,0,0,1,.49-.5h6.64a.49.49,0,0,0,.49-.49V10.12a.5.5,0,0,0-.49-.5H26.13a.49.49,0,0,1-.49-.49V5.42a.49.49,0,0,1,.49-.49H37.47a.48.48,0,0,1,.41.23l5.8,9.14a.5.5,0,0,1,.08.26v8.49a.5.5,0,0,0,.49.5h4.11a.5.5,0,0,0,.49-.5V14.46a.5.5,0,0,1,.08-.26l8.33-13A.49.49,0,0,0,56.84.4h-4.6A.49.49,0,0,0,51.82.64Z"/><path class="cls-1" d="M66.4,0A12,12,0,0,0,54.07,12V12a11.85,11.85,0,0,0,12.27,11.9A12,12,0,0,0,78.67,12v-.06A11.86,11.86,0,0,0,66.4,0Zm6.95,12a6.93,6.93,0,0,1-6.95,7.21,7,7,0,0,1-7-7.28v-.06a6.92,6.92,0,0,1,7-7.21,7,7,0,0,1,7,7.27Z"/><path class="cls-1" d="M94.56,13.48,84.75.59a.51.51,0,0,0-.4-.19H80.4a.49.49,0,0,0-.5.49V23.05a.5.5,0,0,0,.5.5h4a.5.5,0,0,0,.5-.5V10.3a.49.49,0,0,1,.89-.3L96,23.35a.52.52,0,0,0,.4.2H100a.5.5,0,0,0,.49-.5V.89A.49.49,0,0,0,100,.4h-4a.49.49,0,0,0-.49.49V13.18A.49.49,0,0,1,94.56,13.48Z"/><path class="cls-1" d="M111.21.4h-8.53a.49.49,0,0,0-.5.49V23.05a.5.5,0,0,0,.5.5h8.53c7.28,0,12.3-5.06,12.3-11.58v-.06C123.51,5.39,118.49.4,111.21.4Zm7,11.64a6.6,6.6,0,0,1-7,6.91h-3.44a.5.5,0,0,1-.5-.5v-13a.51.51,0,0,1,.5-.5h3.44a6.65,6.65,0,0,1,7,7Z"/><path class="cls-1" d="M130.31,16.35l9.76-4a.5.5,0,0,0,0-.92l-9.76-4A.5.5,0,0,1,130,7V3.31a.5.5,0,0,1,.7-.45l15,6.58a.49.49,0,0,1,.3.45v3.92a.5.5,0,0,1-.3.45l-15,6.58a.5.5,0,0,1-.7-.46V16.81A.51.51,0,0,1,130.31,16.35Z"/></g></g></svg>