<svg width="387" height="130" viewBox="0 0 387 130" fill="none" xmlns="http://www.w3.org/2000/svg">
<path d="M121.312 106.596L121.008 105.319L120.28 104.59L119.065 104.104L117.851 104.59L117.121 105.319L116.878 106.536L117.121 107.509L117.851 108.481L119.065 108.724L120.28 108.481L121.008 107.509L121.251 106.536M123.257 106.596L122.952 104.833L121.981 103.374L120.766 102.645L119.065 102.159L117.365 102.645L116.151 103.374L115.179 104.833L114.936 106.536L115.179 107.995L116.151 109.454L117.365 110.426L119.065 110.669L120.766 110.426L121.981 109.454L122.952 107.995L123.195 106.536M124.956 106.596L124.409 104.347L123.194 102.402L121.251 101.186L119.065 100.7L116.878 101.186L114.935 102.402L113.72 104.347L113.234 106.536L113.72 108.724L114.935 110.669L116.878 111.886L119.065 112.372L121.251 111.886L123.194 110.669L124.409 108.724L124.895 106.536M132.001 106.596L131.455 103.131L130.24 99.9703L128.054 97.2948L125.382 95.3495L122.467 94.1343L119.065 93.6472L115.665 94.1343L112.506 95.3495L109.834 97.2948L107.89 99.9703L106.676 103.131L106.19 106.535L106.676 109.697L107.89 112.858L109.834 115.533L112.506 117.721L115.665 118.938L119.065 119.424L122.467 118.938L125.382 117.721L128.054 115.533L130.24 112.858L131.455 109.697L131.941 106.535M135.888 106.596L135.342 102.645L134.127 99.2404L132.183 96.0798L129.511 93.4043L126.353 91.459L122.709 89.9997L119.065 89.7567L115.421 89.9997L111.776 91.459L108.619 93.4043L105.946 96.0798L104.003 99.2404L102.789 102.645L102.303 106.536L102.789 110.183L104.003 113.831L105.946 116.992L108.619 119.667L111.776 121.612L115.421 122.829L119.065 123.315L122.709 122.829L126.353 121.612L129.511 119.667L132.183 116.992L134.127 113.831L135.342 110.183L135.827 106.536M141.961 106.596L141.415 101.916L140.2 97.7819L138.014 93.6472L135.099 90.2436L131.698 87.3251L127.811 85.3798L123.438 83.9205L119.065 83.6775L114.692 83.9205L110.32 85.3798L106.433 87.3251M106.433 87.3251L102.789 90.2436L100.116 93.6472L97.9295 97.7819L96.4717 101.916L96.2289 106.535L96.4717 110.912L97.9295 115.29L100.116 119.181L102.789 122.584L106.433 125.503L110.32 127.691L114.692 128.907L119.065 129.393L123.438 128.907L127.811 127.691L131.698 125.503L135.099 122.584L138.014 119.181L140.2 115.29L141.415 110.912L141.901 106.535M106.433 87.3251L101.148 81.5495M97.9914 97.5997L95.7436 97.0521V96.566M98.1724 97.2951L94.5898 96.3834L94.7729 96.0798M98.2343 96.8694L93.8003 95.8357M98.4771 96.3834L92.8291 95.1067M92.8291 95.1067L92.3418 95.3497L91.8562 95.1066V94.1345L92.3418 93.8904L92.8284 94.1345L93.1317 94.681M92.8291 95.1067L93.0717 94.6205L98.7197 96.1402M93.8604 95.8973L94.043 95.3497M93.1317 91.5194L92.8284 90.9728L92.3418 90.7298L91.8562 90.9728V91.945L92.3418 92.189L92.8284 91.945L93.0713 91.4589M92.6464 92.0065L92.5848 93.8903M92.1594 93.9519L92.0988 91.9451M88.76 92.4927L88.4558 91.9451L87.9702 91.702L87.4846 91.9451L87.2417 92.4322L87.4846 92.9183H87.9702M87.9702 92.9183H88.4558L88.6986 92.4322M87.9702 92.9183L88.4558 93.1612L88.76 93.7088M87.9702 92.9183L87.4846 93.1612L87.2417 93.6472L87.4846 94.1344L87.9702 94.3774L88.4558 94.1344L88.6986 93.6472M91.9163 91.5195L88.6974 92.1891M76.855 96.1403L84.5683 96.0798M76.7947 96.0797L76.3091 95.8356L76.0663 95.1065L76.3091 94.3774L76.855 94.1949L84.5683 94.1344L84.8118 94.3775L85.0556 95.1066L84.8118 95.8357L84.6304 96.1403M84.8733 94.681L87.2419 93.8904M77.5849 96.6263L77.5244 102.888M78.5554 102.949L78.4948 96.566M79.0424 97.3555L78.9808 96.0798M78.5557 102.462L80.6815 101.429M78.5557 97.1125L78.9808 97.295M80.0138 97.5995L80.6817 97.7821L81.1671 98.2682L81.6538 98.9973V100.214L81.1671 101.186L80.743 101.49M80.0134 96.1402L79.9529 97.538M77.5844 97.5995L76.7945 98.0251L76.3089 98.9973V100.457L76.7945 101.429L77.5239 101.916M77.5844 102.949L77.7668 102.888H78.4952M78.556 96.6263L78.2528 96.5658L78.01 96.3228H77.7672L77.5244 96.5658M84.1434 94.1951L84.083 90.2439H79.4677V94.1346M79.0424 94.1951L78.981 90.2439H77.0375V94.1346M76.8555 87.8728L76.7949 94.1344M84.6305 94.195L84.569 89.5137M77.0375 88.2982L77.0991 89.818L84.0831 89.7567M84.143 89.818L87.241 88.2982M76.855 88.3587L92.0993 88.2982M78.5553 88.3588L78.4948 87.3251M78.4948 87.3251H81.8961M78.4948 87.3251L77.5244 86.109V84.6508L78.01 83.1916L79.224 82.2184L80.9246 81.9753L82.2001 82.766M81.957 88.3588L81.8965 86.1089H80.1959L79.7103 85.3798V84.6506L80.1959 84.1635L80.6815 83.6775L81.4109 83.9205M81.4718 83.9823L82.1398 83.9208L82.3826 83.1917L82.1398 82.7056M82.929 65.987L82.8675 88.2984M87.727 88.2986L87.7875 85.6836L92.0991 85.623M82.8675 65.9266L128.843 65.9871L128.782 64.2242L128.782 52.552H117.364L117.122 52.795H110.806L110.32 53.0381H106.433L105.947 53.2811H104.003L103.517 53.5241H102.303L101.817 53.7682H100.116L99.6306 54.0112H98.6593L98.4155 54.2543H97.2015L96.7159 54.4973H95.9865L95.7437 54.7404H94.5286L94.2858 54.9834H93.5574L93.3146 55.2264H92.5852L92.3424 55.4695H91.8568L91.6139 55.7135H91.1283L90.8855 55.9566H90.3989V56.1996H89.9133L89.6705 56.4427H89.1849V56.6857H88.9421L88.6983 56.9287H88.2127V57.1718H87.9698L87.727 57.4148H87.4842L87.2414 57.6589L86.9986 57.9019H86.7548V58.145H86.512L86.0264 58.631H85.7836V58.8741L85.298 59.3601V59.6042H85.0552V59.8473L84.8114 60.0903V60.5764H84.5686V61.0625L84.3258 61.3055V62.5217L84.0829 62.7648V63.0078H84.3258V63.7379L84.5686 63.981L84.6298 64.2847M82.9289 67.2032L86.5116 67.1427V77.5985H82.8675M86.5732 72.3092L90.6414 72.2487V65.9266M91.917 67.203L91.6138 66.6554L91.1282 66.4124L90.8854 66.6554L90.6415 67.1425L90.8854 67.6286H91.6138L91.8566 67.1425M91.917 70.6079L91.6138 70.0603H90.8854L90.6415 70.5463L90.8854 71.0334L91.1282 71.2765L91.6138 71.0334L91.8566 70.5463M249.582 106.596L249.277 105.319L248.549 104.59L247.334 104.104L246.12 104.59L245.39 105.319L245.148 106.536L245.39 107.509L246.12 108.481L247.334 108.724L248.549 108.481L249.277 107.509L249.52 106.536M251.768 106.596L251.221 104.833L250.25 103.374L249.035 102.645L247.334 102.159L245.876 102.645L244.419 103.374L243.447 104.833L243.204 106.536L243.447 107.995L244.419 109.454L245.876 110.426L247.334 110.669L249.035 110.426L250.25 109.454L251.221 107.995L251.707 106.536M253.226 106.596L252.679 104.347L251.464 102.402L249.52 101.186L247.334 100.7L245.148 101.186L243.204 102.402L241.989 104.347L241.504 106.536L241.989 108.724L243.204 110.669L245.148 111.886L247.334 112.372L249.52 111.886L251.464 110.669L252.679 108.724L253.164 106.536M260.27 106.596L259.724 103.131L258.509 99.9703L256.565 97.2948L253.893 95.3495L250.735 94.1343L247.334 93.6472L243.933 94.1343L241.018 95.3495L238.346 97.2948L236.159 99.9703L234.945 103.131L234.459 106.535L234.945 109.697L236.159 112.858L238.346 115.533L241.018 117.721L243.933 118.938L247.334 119.424L250.735 118.938L253.893 117.721L256.565 115.533L258.509 112.858L259.724 109.697L260.209 106.535M264.156 106.596L263.853 102.645L262.638 99.2404L260.452 96.0798L257.78 93.4043L254.621 91.216L251.22 89.9997L247.333 89.7567L243.689 89.9997L240.045 91.216L236.887 93.4043L234.215 96.0798L232.271 99.2404L231.057 102.645L230.571 106.536L231.057 110.183L232.271 113.831L234.215 116.992L236.887 119.667L240.045 121.612L243.689 122.829L247.333 123.315L251.22 122.829L254.621 121.612L257.78 119.667L260.452 116.992L262.638 113.831L263.853 110.183L264.096 106.536M270.23 106.596L269.927 101.916L268.469 97.7819L266.283 93.6472L263.611 90.2436L259.967 87.3251L256.08 85.3798L251.95 83.9205L247.334 83.6775L242.961 83.9205L238.589 85.3798L234.702 87.3251L231.301 90.2436L228.385 93.6472L226.199 97.7819L224.985 101.916L224.498 106.535L224.985 110.912L226.199 115.29L228.385 119.181L231.301 122.584L234.702 125.503L238.589 127.691L242.961 128.907L247.334 129.393L251.95 128.907L256.08 127.691L259.967 125.503L263.611 122.584L266.283 119.181L268.469 115.29L269.927 110.912L270.17 106.535M298.654 106.596L298.35 105.319L297.378 104.59L296.407 104.104L295.192 104.59L294.221 105.319L293.978 106.536L294.221 107.509L295.192 108.481L296.407 108.724L297.378 108.481L298.35 107.509L298.593 106.536M300.596 106.596L300.293 104.833L299.321 103.374L297.864 102.645L296.406 102.159L294.706 102.645L293.248 103.374L292.277 104.833L292.034 106.536L292.277 107.995L293.248 109.454L294.706 110.426L296.406 110.669L297.864 110.426L299.321 109.454L300.293 107.995L300.536 106.536M302.055 106.596L301.752 104.347L300.294 102.402L298.593 101.186L296.407 100.7L293.978 101.186L292.277 102.402L291.062 104.347L290.576 106.536L291.062 108.724L292.277 110.669L293.978 111.886L296.407 112.372L298.593 111.886L300.294 110.669L301.752 108.724L301.994 106.536M309.1 106.596L308.796 103.131L307.339 99.9703L305.396 97.2948L302.723 95.3495L299.565 94.1343L296.407 93.6472L293.005 94.1343L289.847 95.3495L287.175 97.2948L285.232 99.9703L283.774 103.131L283.531 106.535L283.774 109.697L285.232 112.858L287.175 115.533L289.847 117.721L293.005 118.938L296.407 119.424L299.565 118.938L302.723 117.721L305.396 115.533L307.339 112.858L308.796 109.697L309.04 106.535M313.23 106.596L312.682 102.645L311.468 99.2404L309.525 96.0798L306.852 93.4043L303.695 91.216L300.051 89.9997L296.406 89.7567L292.52 89.9997L289.118 91.216L285.717 93.4043L283.045 96.0798L281.102 99.2404L279.887 102.645L279.401 106.536L279.887 110.183L281.102 113.831L283.045 116.992L285.717 119.667L289.118 121.612L292.52 122.829L296.406 123.315L300.051 122.829L303.695 121.612L306.852 119.667L309.525 116.992L311.468 113.831L312.682 110.183L313.169 106.536M319.303 106.596L318.757 101.916L317.542 97.7819L315.356 93.6472L312.44 90.2436L309.04 87.3251L305.152 85.3798L300.78 83.9205L296.407 83.6775L291.792 83.9205L287.418 85.3798L283.531 87.3251L280.13 90.2436L277.215 93.6472L275.272 97.7819L273.814 101.916L273.328 106.535L273.814 110.912L275.272 115.29L277.215 119.181L280.13 122.584L283.531 125.503L287.418 127.691L291.792 128.907L296.407 129.393L300.78 128.907L305.152 127.691L309.04 125.503L312.44 122.584L315.356 119.181L317.542 115.29L318.757 110.912L319.243 106.535M92.1597 88.3588L93.5571 87.3251M93.5571 87.3251L105.035 74.9847M93.5571 87.3251L93.0711 87.0824L92.3416 86.8394L92.0988 86.1092L92.1597 85.6835L104.489 72.2486L104.975 72.0054L105.765 71.8228L128.782 71.7626M141.961 105.867L179.07 100.456L182.471 104.347M196.379 104.165L207.25 104.104M210.226 104.165L215.51 104.104M213.384 111.946L223.284 111.886V109.697H213.323V111.886M215.571 99.7881L215.51 109.697M221.158 109.758L221.098 99.7274M269.258 99.7879L274.542 99.7274M273.632 109.758L269.927 109.697M110.38 85.4403L110.32 81.7321M98.9625 81.5498L101.088 81.4893M100.177 80.0915L108.619 80.03L109.833 80.5161L110.38 81.7928M123.985 77.6589L128.054 77.5984M122.283 83.738L122.223 79.0577L122.709 78.0845L123.924 77.5984M101.634 75.4707L94.2855 74.437M94.3472 80.5777L95.7436 81.7324M93.3748 74.2544L93.3143 80.516M93.3143 74.194V73.7079H94.0427L94.2855 73.951L94.3471 74.2544L94.2855 80.516L94.2855 81.0031H93.3143L93.3747 80.5775M93.3745 74.7415L92.5846 75.167L91.8562 76.1392V78.8147L92.5846 79.7868L93.314 80.0299M182.532 104.408L185.629 104.347M185.629 104.347L185.872 105.564L186.602 105.807H194.375L194.436 102.949M185.629 104.347L185.872 103.374L186.601 102.888H195.103L195.164 105.381L194.375 105.319M221.158 105.867L224.498 105.806M207.312 102.462L207.25 105.076M210.226 105.138L210.165 102.402M207.312 105.138L207.493 105.564L208.223 105.807H209.194L209.923 105.564L210.166 105.076M209.255 104.165L209.193 103.618L208.708 103.374L208.465 103.618L208.222 104.104L208.708 104.59L209.193 104.347V104.104M175.669 56.6861L144.634 56.7466L144.816 56.6858H145.059L145.302 56.4428H145.545L145.788 56.1997H146.274L146.517 55.9567H146.76L147.003 55.7136H147.245L147.488 55.4696H147.731L147.974 55.2265H148.217L148.46 54.9835H148.703L148.946 54.7405H149.189V54.4974H149.432L149.917 54.0113V53.7683H150.16L150.16 53.5242L150.221 39.4813M175.669 56.6861V89.9999M175.669 56.6861L174.939 56.4428L174.697 55.7137L174.758 36.8069L152.832 36.7464M175.669 89.9999H144.574M175.669 89.9999L175.73 98.3289L146.759 98.2681M175.669 89.9999L175.912 89.9997L176.155 89.7566H176.398V89.5136H176.641V89.2706H176.883V89.0275H177.127V88.7845H177.37V88.5414H177.613V88.2984H177.856V88.0543H178.098V87.8113H178.341V87.5683L178.584 87.3252V87.0822H178.828V86.8391L179.314 86.3531V86.109L179.799 85.6229V85.3799L180.042 85.1368V84.6507L180.285 84.4077L180.528 84.1637V83.9206L180.771 83.6776V83.1915L181.014 82.9485V82.7054L181.257 82.4624V82.2183L181.5 81.9753V81.2462H181.743V79.7869L181.985 79.5439V76.3823L182.046 76.1998M144.634 60.1512L144.574 56.6861M195.164 103.435L196.318 103.374V104.833H195.103M215.57 102.462L180.771 102.402M215.57 101.733L180.041 101.673M336.551 99.7881L336.491 103.618M337.523 104.651L340.378 104.59M341.41 103.679L341.348 99.7274M334.79 101.673L334.85 105.381L335.033 106.05L336.005 106.536L342.139 106.596L342.807 106.049L343.05 105.319M343.112 105.381L343.05 101.673M334.851 101.733L332.361 99.7274M343.112 101.733L345.48 99.7274M336.551 103.679L336.734 104.347L337.462 104.59M340.438 104.651L341.106 104.347L341.349 103.618M338.98 99.7878L338.92 76.1391L339.406 76.6252V90.2436L338.98 90.7902M354.771 76.1996L181.013 76.1391L181.074 74.4985L355.197 74.437V76.1393L354.711 76.1391V99.7272L319.303 99.7878L309.525 81.7321M354.771 86.1705L355.197 85.866L355.439 85.1368L355.197 84.6508L354.71 84.4077M351.857 78.1461L351.796 85.1368M353.314 85.1972L353.254 78.0845L353.01 77.8415L352.767 77.5984H352.282L351.796 78.0845M351.856 85.1973L352.039 85.6228H353.01L353.254 85.1368M339.467 84.9542L340.135 84.6507L340.378 83.9205L340.135 83.4345L339.406 83.1914M311.226 78.5707L322.947 99.7879L309.768 76.1391M308.128 81.0636L235.188 81.0031M309.586 81.7927L308.796 81.2461L308.068 81.0031M311.286 78.6323L310.496 77.8416L233.547 77.9021L232.758 77.8416L232.029 78.5707L220.429 99.7879L233.487 76.1391M235.248 81.0637L234.459 81.2463L233.73 81.7321L224.073 99.7878L182.471 99.7274L182.775 76.1998M270.23 92.4926L270.17 81.0031M273.389 81.0637L273.328 92.4322M278.247 92.4928L265.311 92.4323M144.148 60.1508L145.059 60.0903V64.2241L144.149 64.2845L144.087 60.0903M144.148 62.0964L145.059 62.0359M144.148 79.1182L145.059 79.0577V82.9484L144.149 83.0089L144.087 79.0577M144.148 81.0636L145.059 81.0031M144.634 64.2845L144.574 79.0576M144.634 90.0611L144.574 82.9484M90.7032 71.8231L105.704 71.7626M128.054 74.437L106.251 74.4985L105.461 74.437L104.976 74.9241M128.054 74.437L128.539 74.68L128.782 75.4102V76.3823L128.539 77.1125L128.114 77.659L128.297 77.5984M128.054 74.437H128.782L129.572 74.9846M128.782 71.7626L129.512 72.0056L130.057 72.3091L140.929 84.4077L146.759 98.2681M128.782 71.7626L128.782 65.9266M132.488 87.8729L139.958 87.8114M129.329 74.9847L138.986 85.623L144.816 98.9974M140.261 97.5996L144.087 97.5381M140.747 99.0577L143.116 98.2681M141.719 103.436L143.116 102.888V97.5381M146.759 98.2681L146.76 98.9972L146.274 99.7274H145.302L144.877 99.0577M150.221 90.0614L150.16 98.2683M150.707 98.3289L150.647 89.9999M150.707 97.5996L170.324 97.5381M170.384 90.0614L170.324 98.2683M170.871 98.3289L170.81 89.9999M143.177 102.705L143.359 103.374L143.845 103.618H144.574L145.06 103.131L147.003 99.7274H175.669M175.73 101.003L152.348 100.943M152.348 100.943V99.7274M152.348 100.943L152.348 101.186H152.105L151.861 101.429H151.375L151.133 101.673H150.16V101.916H147.731V101.673H147.488L146.092 101.733M84.6298 64.2847L144.087 64.2242M84.6298 64.2847L83.8397 64.467L83.5969 64.9531L83.8397 65.6832L84.5681 65.9263M127.325 62.2787L88.273 62.3392L87.9696 62.2787V61.5496H88.2124V61.3055H88.4552L88.698 61.0625H88.9418V60.8195H89.1846V60.5764H89.4274V60.3334H89.6702L90.1558 59.8473H90.3986L90.6414 59.6043H90.8853V59.3602H91.3709V59.1172H91.8565V58.8741H92.0993L92.3421 58.6311H92.5849L92.8287 58.388H93.3143L93.5571 58.145H93.7999L94.0427 57.902H94.5283L94.7722 57.6589H95.015L95.5006 57.4149H95.9862L96.4718 57.1718H96.7156L97.2012 56.9288H97.444L97.9296 56.6857H98.4153L98.6591 56.4427H99.1447L99.3875 56.1997H100.116L100.36 55.9566H101.574L101.817 55.7136H102.789L103.032 55.4695H104.732L105.218 55.2265H106.19L106.433 54.9834H107.647L107.89 54.7404H109.833L110.32 54.4974H112.749L113.234 54.2543H121.008L121.738 54.0113H123.438M115.967 60.8801L116.635 60.3335H124.652L125.138 60.8196H115.907M115.967 59.9079L116.635 59.3603H124.652L125.138 59.8474H115.907M115.967 58.6916L116.635 58.145H124.652L125.138 58.6311H115.907M229.903 76.1998L229.843 82.7054M189.819 88.8449L199.718 88.7844M199.78 80.3347L189.759 80.2732V88.7847M199.78 88.8452L199.719 80.2732M199.293 84.7111L198.99 83.9205L198.504 83.6775L197.775 83.9205L197.532 84.6506L197.775 85.1367L198.504 85.3798L198.99 85.1367L199.233 84.6506M220.186 80.3347L209.923 80.2732V88.7847H220.126V80.2732M219.7 84.7111L219.397 83.9205L218.667 83.6775L218.182 83.9205L217.939 84.6506L218.182 85.1367L218.667 85.3798L219.397 85.1367L219.639 84.6506M175.729 99.788L178.584 99.2404M179.13 100.517L178.583 100.214V95.1067M178.583 95.1067H182.714M178.583 95.1067V90.4867L179.616 88.3588M177.915 88.3587L182.714 88.2982M128.844 52.6125L132.67 52.552L132.669 52.3093H132.913V52.0662H133.156V51.8232M132.669 64.2243L132.731 63.3126L134.127 63.2509L140.505 53.3429M139.046 64.2846L138.986 63.2509H140.443M140.505 64.2846L140.443 49.3905H141.173M141.173 49.3905V64.2241M141.173 49.3905H141.416L141.477 49.6959M141.173 49.3905L141.173 49.6342M134.431 64.2847L140.443 54.4975M142.206 55.5321L142.144 55.2268M142.205 47.7498L142.144 47.2022V46.7162L142.63 46.4731L143.116 46.7162L143.419 47.2626L143.358 55.4696L143.116 55.9567L142.63 56.1997L142.144 55.9567M142.205 55.2883L142.144 47.6884M142.205 55.5311L142.144 55.9567M142.144 55.9567L141.415 55.9566L141.233 56.0171M142.205 47.993L141.901 47.9315V47.6884L141.658 47.9315L141.415 47.9312L141.476 49.452L141.415 53.5242L141.476 54.801L141.9 55.2264V54.9834L142.143 54.7403M159.696 54.315L171.539 54.2545M158.663 38.4487L158.723 54.315L153.804 54.2545L153.076 54.0115L152.651 53.3429M159.634 54.2543L159.696 38.509L171.539 38.4487L172.268 38.6918L172.571 39.4813L172.511 53.2812L172.267 54.0116L171.599 54.3151M158.723 38.5093L153.804 38.4487M152.65 39.4813L152.59 53.2812M153.865 38.509L153.075 38.6915L152.59 39.4207M174.758 55.5311L181.985 55.4696M152.893 36.8069L151.618 36.9894L150.646 37.9616L150.16 39.4208M169.413 60.8803L173.726 60.8198M173.786 58.6917L169.353 58.6312M172.571 59.422L172.754 59.3603H172.996V60.0904L172.815 60.394L172.997 60.3335M172.754 60.3335L172.571 60.3942L166.922 60.3335L166.68 60.0903V59.6043L166.984 59.4218L172.51 59.3603M173.786 60.8801L174.454 60.5766L174.697 59.8474L174.454 58.8743L173.725 58.6312M169.413 58.6919L168.381 58.8744L168.138 59.8476L168.381 60.5767L169.353 60.8197M148.521 36.3206L148.46 53.0381V53.2811H148.217V53.5241H147.974V53.7682H147.731V54.0112H147.488L147.003 54.4973H146.76L146.274 54.9834H146.03L145.788 55.2264H145.059V55.4695H144.33L144.087 55.7135H143.358M148.521 36.3206L178.34 36.2592M148.521 36.3206L139.471 32.8557L138.986 32.8557V32.6126H138.743V31.6395H138.986V31.3964H139.229L139.532 31.4568L151.861 28.7208M132.731 52.6125L132.913 52.552L133.156 52.795H133.399V53.0381H133.884L134.127 53.2811H134.37L134.613 53.5241H134.857L135.099 53.7682H135.342L135.585 54.0112H136.071V54.2543H136.556L136.8 54.4973H137.043L137.286 54.7404H137.528L137.771 54.9834H138.014L138.257 55.2264H138.743V55.4695H139.229M143.177 55.7745L143.36 55.7138M139.775 55.7743L139.958 55.7138H140.443M140.262 36.8069L134.37 51.0929L134.613 51.3361H134.856V51.5791H135.099L135.342 51.8232H135.585L135.828 52.0662H136.07L136.313 52.3093H136.8L137.043 52.5523H137.285V52.7954H137.771V53.0384H138.499V53.2814H139.229V53.5245H140.2L140.262 53.8291M143.358 53.7685H144.816V53.5244H145.545V53.2814H146.274V53.0384H146.76V52.7953H147.003V52.5523L147.245 52.3092V51.8232L147.306 39.2384L147.003 38.4486L146.76 38.2045M141.475 53.3431L141.658 53.2814M326.106 99.7881L326.045 109.454M331.693 109.515L331.632 99.7274M333.637 109.515L323.858 109.454L323.919 111.46L333.575 111.399M333.637 111.46L333.575 109.454M140.261 33.4022L140.2 36.7463M141.961 40.6976L135.827 50.6068M136.617 51.1532L142.63 41.123V40.8799L142.386 40.6369H141.901M135.887 50.6673L135.827 50.8498L136.07 51.0929H136.555M134.431 51.1536L134.127 51.0931V51.3361H133.641V51.5791H133.398V51.8232H133.156M133.156 51.8232L139.774 44.5882L139.228 44.0405M133.156 51.8232L132.912 51.3358L139.289 44.102M146.82 38.2661L142.143 36.2592L141.172 36.0162L140.443 36.5033L139.957 37.2324M132.731 42.8859L132.669 50.1207M133.702 50.1811L133.641 42.8253M132.731 50.1813L132.913 50.6069H133.399L133.641 50.1208M133.702 42.886L133.398 42.3394H132.913L132.669 42.8255M132.731 43.8592L131.698 45.0139L131.213 46.4731L131.698 48.1755L132.669 49.3906M133.701 49.695L134.126 49.8776M134.917 49.9382L135.1 49.8776M137.103 44.5882L136.07 43.7976L134.856 43.3115H133.641M178.401 36.3207L179.556 35.287L180.284 33.8278V32.3685L179.556 30.9103L178.098 30.1801L177.855 29.9371H177.612L177.369 29.6941H177.126L176.883 29.4511H176.154L175.911 29.208H175.426L175.183 28.965H174.211L173.968 28.7209H173.24L172.996 28.4779H172.024L171.539 28.2348H170.567L170.081 27.9918H168.38L167.895 27.7488H162.064L161.882 27.8093M151.922 28.7824L152.104 28.7209L152.347 28.4779H153.804L154.291 28.2348H156.72L157.205 27.9918H159.634M163.583 31.9431L163.036 31.1535L161.822 30.4234L163.036 30.9105L163.523 31.8826L163.279 32.6128L162.308 33.3419H159.392L158.421 32.6128L157.935 31.8825M157.935 31.8825L158.421 31.1534L159.696 30.4848L158.421 30.9105L157.935 31.8825ZM180.346 33.4022L180.285 55.4696M182.045 74.4985L181.985 27.0197M184.233 27.0802L183.928 55.7137M185.447 50.1813L186.358 50.1208V50.8499M185.447 50.9104L185.386 50.1208M184.414 52.0662L184.475 50.9104L187.572 50.8498L187.632 52.1266M184.475 52.1266L184.9 52.0661M187.148 52.1266L187.573 52.0661M184.961 52.1266L184.901 55.4697M187.147 55.5312L187.087 52.0661M183.26 57.7196L183.199 68.601M188.605 56.7463L188.545 68.6009M184.961 55.5312L184.901 60.0905M187.147 60.1509L187.087 55.4696M185.69 59.1788L186.115 59.1172V60.0904H185.629V59.1172M184.961 60.151L184.901 63.9812L184.475 64.0417M187.087 60.0903L187.147 64.0415L187.572 63.9812V65.1964H184.414V63.9812M185.447 65.258L185.386 68.601M186.419 68.6624L186.357 65.1963M182.775 68.6623L189.031 68.6007V71.0332H182.715V68.6007M183.26 71.0938L183.199 74.4369M188.605 71.0938L188.545 74.4369M188.605 61.6101L191.702 61.5496V74.4369M188.362 56.2605L187.815 55.7139L187.087 55.2268M188.301 56.1998L191.763 61.6103L195.832 68.1149V70.3033L196.804 72.0056V74.437M184.96 55.288L183.685 56.1997L183.199 57.6589M258.569 74.4984L258.509 73.2217H310.254V74.4369M259.784 73.2823L259.724 72.2486H309.039V73.2218M308.615 72.3092L308.553 71.7626M308.553 71.7626H260.452L260.513 72.3092M308.553 71.7626L310.984 71.7627V70.5465M260.513 71.8232L257.781 71.7627V70.5465H310.984M310.984 70.5465L310.984 69.088M257.842 70.6078L257.781 69.088M310.984 69.088L271.931 69.1485L270.656 67.6287M310.984 69.088L346.998 29.7546M257.841 69.1485L271.87 69.088M268.53 31.2139L268.469 69.088M270.717 67.6893L270.655 31.1534H268.469M270.717 31.2139L278.186 31.1534L283.288 46.4731H286.204V69.0881M284.564 69.1484L284.503 67.8717M285.049 67.9322L283.531 67.8717M283.835 67.9324L283.774 69.0881M267.255 63.251H266.768L266.83 62.3393L267.255 62.2787L268.531 62.3392M267.316 64.0417L267.255 61.7929H268.469M268.531 64.0417L267.255 63.9812M267.315 63.3125L268.469 63.2509M266.768 34.5579L266.83 35.5905L267.255 35.5301M266.83 34.6184L267.255 34.5579L268.531 34.6184M268.469 36.2593H267.255L267.316 34.1325L268.469 34.0708M267.315 35.5906L268.469 35.5301M306.184 69.1486L306.124 68.3579H309.768V69.0881M307.157 54.0719L307.097 68.3579M308.615 68.4183L308.553 54.0113M315.841 54.0113L305.213 54.0718L304.423 53.0382M300.354 52.3697L315.113 52.3092L316.085 52.066L316.57 51.0929L318.089 42.8859L318.028 42.3393L317.785 41.8522H317.3L316.814 42.0952L316.57 42.5823L315.113 50.6068L300.354 50.6673L299.808 50.8498L299.565 51.5789L299.808 52.066L300.294 52.3091M301.509 52.3092L302.055 53.0987L315.113 53.0382L316.085 52.795L316.814 52.0659L317.057 51.3358L318.574 44.1023L318.513 43.7978L318.27 43.5547H318.027V43.7978H317.784M317.057 51.8229L315.902 54.0718L319.729 55.4696L319.546 56.5033M347.726 28.0521L347.423 26.7754L346.451 25.8032L345.236 25.5602L343.779 25.8032L342.807 26.7754L342.564 27.9916L342.807 29.2078L343.779 30.18L345.236 30.6661L346.451 30.18L347.423 29.2078L347.666 27.9916M343.839 33.4023L377.061 33.3418L377.121 32.9164M282.135 43.1291L284.989 42.3394M281.405 40.9406L281.83 39.1778L280.13 34.0708L278.977 33.8883M286.264 50.6673L292.519 54.9835L319.485 56.4428H320.213L320.456 55.2266M320.519 55.2881L316.085 53.5242M281.648 40.4545L284.989 41.8523M309.343 50.6671L289.118 42.8253M285.292 39.9683L284.503 46.4729M285.05 46.5337L285.475 39.907L285.961 39.6639L286.204 39.1779L285.961 38.6918L285.475 38.4487H284.989L284.747 38.9348V39.4209L285.232 39.907M285.536 41.9137L285.96 42.0952M285.049 41.1836L281.83 39.9068M285.536 42.3997L344.508 25.5602M282.621 44.3451L284.746 43.7975M320.518 36.0778L320.214 35.0441L285.474 42.5824M285.05 42.6427L282.074 43.0683M285.292 43.615L320.456 36.0162M286.75 41.914L285.474 41.3664M288.208 43.1289L307.825 50.8498M278.977 33.4023L317.057 33.3418M268.469 33.3418L257.355 33.4023L257.294 30.9104M320.275 35.3476L321.914 35.0441M321.914 35.0441L322.157 34.3139L322.887 34.0708L323.372 34.3139L323.919 35.1045M321.914 35.0441L322.157 35.7731L322.887 36.0162L323.372 35.7731L323.858 35.044M320.275 35.8337L321.914 35.5301M321.732 32.1872L324.83 36.2594L326.531 34.8011L323.615 30.9105L322.887 30.4234L321.915 30.6664L321.672 31.3965L321.915 32.1257M320.214 27.5056V26.5325L319.789 26.594L319.728 27.506M317.845 28.7824L317.784 29.451H322.157V28.7208H317.784M322.218 28.2955L317.784 28.2348L317.845 27.5662L322.157 27.5059V28.2351M319.788 28.2954L319.728 28.721M320.275 28.7826L320.214 28.235M319.788 29.5116L319.728 31.1534H320.213V29.4511M311.043 41.1836L314.626 41.1231M315.173 41.6697L310.496 41.6092M310.558 39.4811L315.113 39.4206V41.609M310.558 41.6695L310.496 39.4206M310.983 41.123L311.043 39.9684L314.626 39.9068L314.688 41.1836M314.931 33.4022L312.683 34.5579M312.257 33.4022L309.525 35.5301M306.185 33.4022L304.666 35.2871L303.208 37.2324M304.728 33.4022L303.209 35.2871L301.752 37.7185M315.416 48.4789L313.412 48.6615L311.712 49.3906L310.254 50.6068M311.286 56.0173L312.197 57.172L313.655 57.9021H315.355L316.813 57.415L318.027 56.4429M309.586 56.0173L310.497 57.6591L312.44 59.1173L314.384 59.6044L316.57 59.3604L318.513 58.1452L319.728 56.4429M315.174 50.1813L313.898 50.1208L312.441 50.6069M318.818 54.558L318.757 53.0382L318.028 51.823L317.299 50.8498M320.275 55.0438L320.214 52.795L319.242 50.6066L317.542 49.1473M321.489 57.7195L324.101 57.1719L326.531 56.1998L328.474 54.4975L329.931 52.3091L330.903 49.8777V47.2022M320.761 58.6916L323.372 58.388L326.044 57.6589L328.231 56.1997L330.175 54.0113L331.389 51.5788L332.118 48.9044L331.874 46.2299M319.303 60.151L322.4 60.0905L325.316 59.6044L328.232 58.1451L330.418 56.1998L332.362 53.7684L333.333 50.8499L333.818 47.6883L333.333 44.7708M316.389 63.0694L319.971 63.9811L323.616 63.7381L327.26 62.7649L330.418 61.0626L333.333 58.8742L335.276 55.7137L336.734 52.3091L337.463 48.9045L337.22 45.2568L336.006 41.6092M315.659 64.0417L319.485 64.9533H323.615L327.502 63.9812L330.903 62.0358L334.061 59.6044L336.248 56.1998L337.948 52.5522L338.434 48.6615L338.191 44.5278L336.976 40.8801M312.745 67.4462L316.814 68.844L321.187 69.3311L325.559 68.844L329.932 67.3857L333.819 65.1963L337.22 62.2788L339.893 58.8742L341.593 54.7405L342.565 50.3637V45.986L341.836 41.6092L339.893 37.4755M312.015 68.1754L315.841 69.5742L320.214 70.3033L324.587 70.0602L328.96 69.0881L332.846 67.1428L336.491 64.7103L339.405 61.3057L341.593 57.6591L343.049 53.5243L343.779 49.1476L343.536 44.7708L342.564 40.6371L340.62 36.7464M350.398 33.4022L350.337 36.9894L359.872 37.0499M359.873 37.0499L359.813 33.3418M350.398 37.779L349.367 36.9894V33.3418M360.844 33.4022L360.784 36.9894L359.812 37.7185H350.337M255.655 29.0254L255.594 30.9102H261.91V28.9649M253.954 29.0256L263.125 28.9651V24.8303M262.7 24.8919L262.639 28.2349H254.622V24.8303M253.954 24.8918L253.894 28.965M257.356 28.2954L257.294 24.8303M377.121 24.8918L377.061 27.5058M377.061 27.5058L378.276 27.992L379.247 28.9652L379.551 30.2409M377.061 27.5058L375.603 27.992L374.632 28.9652L374.389 30.1804L374.632 31.6397L375.603 32.6128L377.061 32.8559L378.276 32.6128L379.247 31.6397L379.49 30.1804M379.551 29.7544L380.705 29.6939M385.624 29.7547L385.563 22.885L385.563 19.7244L377.121 19.785M373.963 30.2406L373.416 29.2079L372.202 28.7208L371.23 29.2079L370.744 30.1801L371.23 31.3963L372.202 31.8824L373.416 31.3963L373.901 30.1801M384.652 28.5396L384.349 27.2628L383.62 26.5327L382.406 26.2896L381.433 26.5327L380.705 27.2628L380.462 28.478L380.705 29.4512L381.433 30.1803L382.406 30.6664L383.62 30.1803L384.349 29.4512L384.592 28.478M384.166 29.7544L385.563 29.6939M377.121 22.9465L380.219 22.885M380.28 21.2441L380.22 24.5872M382.223 24.6488L382.163 21.1837H380.22M380.28 24.6487L382.163 24.5871M385.624 22.9465L382.162 22.885M377.121 21.2441L377.061 24.8302L207.554 24.8919M377.121 19.785L377.061 21.1838M377.121 19.785L373.417 19.7244V22.8849L373.477 24.1617L367.343 24.1011V20.4534M367.404 20.5139L373.417 20.4534M385.563 20.4534L386.595 20.5139L386.535 18.5083M176.397 24.8303L1.06004 24.8919L1 22.1559H12.1741V13.1583L2.94331 13.1582L3.00376 11.7604L12.1742 11.7M385.624 15.4082L365.885 15.3466M386.596 18.5688L370.015 18.5083L332.847 3.18856L328.777 3.24906L328.717 23.8581M385.624 18.5687L385.563 15.3466M334.851 1.06065L335.762 2.70245L373.417 18.5082M328.777 22.2162L367.343 22.3987M328.777 23.9186L367.343 23.8581M311.043 1.0605L334.79 1M327.016 3.18856L302.784 3.24906L292.762 3.18856V23.8582M345.783 28.0525L345.479 27.749L345.236 27.5059L344.75 27.749L344.507 27.992L344.75 28.4781H345.479L345.722 27.992M350.885 28.0525L350.581 27.749L350.095 27.5059L349.852 27.749M349.852 27.749L349.609 27.992L349.852 28.4781H350.581L350.823 27.992M349.852 27.749L345.54 27.8093M345.54 28.2955L349.852 28.235M327.077 3.24901L327.017 23.8581L292.823 23.9186M291.305 23.8581L257.355 23.9186L257.294 3.18856H291.305M291.305 23.8581L291.367 3.24901L276.243 12.1861M291.305 23.8581L289.423 22.2162M342.139 22.2163L344.75 20.6966L346.694 18.5082L348.151 15.8337L348.88 12.9152V9.75465M345.298 22.2162L347.666 19.9674L349.367 17.0488L350.581 13.8883V10.4837M327.077 23.9187L295.434 3.18856M292.823 3.24901L324.587 23.8581M311.529 1.0605L9.98793 1M291.367 22.2163L257.294 22.1557M287.479 18.8128L260.938 3.18856M257.355 3.24901L283.531 18.7512M257.355 15.894L278.429 15.8335M276.547 14.6779L257.294 14.6174M257.355 13.2198L262.396 13.1583M271.931 11.7605L268.469 11.7M277.033 11.7605L291.305 11.7M291.367 13.2198L277.701 13.1583M257.355 19.7849L291.305 19.7244M259.785 22.2162L257.294 23.858M270.717 15.8941L264.096 19.7243M274.604 13.463L272.6 14.6177M261.728 19.7847L268.226 15.8335M270.23 14.6781L272.599 13.1583M272.599 13.1583L265.129 13.2198M272.599 13.1583L273.389 12.7327M275.089 11.5175L288.876 3.18856L269.744 8.35597M257.355 11.7604L267.255 9.02438M288.936 3.24901L271.628 9.51061M269.502 10.5441L258.266 14.6174M262.456 11.7605L268.712 9.99766M271.203 9.32913L277.458 7.32226M270.655 10.9699L268.531 11.7606L261.182 14.6174M272.902 10.3012L284.503 5.86396M222.311 19.7245L222.372 3.24906L255.837 3.18856L255.837 19.7245M222.311 19.7245H255.837M222.311 19.7245V22.1558M255.837 19.7245L255.897 22.2163L222.311 22.1558M222.311 22.1558L222.372 23.9186L255.837 23.858V22.1557M255.897 11.7605L241.746 11.7M222.372 13.2198L226.199 13.1583M255.412 14.6779L237.374 14.6174M222.372 15.894L232.516 15.8335M226.503 19.785L252.679 3.18856L222.372 14.6781M238.892 11.7605L232.271 11.7M239.864 13.2198L255.837 13.1583M234.519 14.6779L222.311 14.6174M235.248 15.894L255.838 15.8335M252.739 3.24901L222.311 11.7L229.66 11.7605M225.288 14.678L249.277 5.37692M227.717 11.7603L236.645 9.2674M220.672 19.7849L218.667 19.7244V22.1558H220.611M220.611 22.1558L220.673 3.24901M220.611 22.1558L220.611 23.8581L218.729 23.9186L209.193 23.8581M255.898 3.24901L228.872 19.7244M224.802 22.2162L222.311 23.858M220.673 3.24901L176.155 3.18856V23.8582L189.819 23.9186M220.673 3.24901L199.719 14.8605M176.215 11.7605L196.561 11.7M196.561 11.7L195.589 13.1581L190.549 22.9464M196.561 11.7L198.262 10.7267L199.719 11.2128V21.1836M220.673 13.2198L202.877 13.1583M176.215 14.6779L194.86 14.6174M220.672 15.894L199.719 15.8335M180.102 23.9186L194.131 16.0767M205.125 11.7605L220.611 11.7M195.651 13.2198L176.155 13.1583M200.023 14.6779L220.611 14.6174M194.436 15.894L176.155 15.8335M10.0494 1.06065L9.98793 3.18853H12.1742V11.7M12.1742 11.7L12.2354 13.2198M79.285 3.24906L44.9708 3.18856V22.1559M79.285 3.24906L79.2235 22.1559M79.285 3.24906L47.3994 22.1558M79.2235 22.1559H44.9708M79.2235 22.1559L79.285 23.9186M44.9708 22.1559L45.0314 23.9186L79.2231 23.8581M80.6815 23.8581L80.7431 3.24901L127.568 3.18856V22.1559M127.568 22.1559H80.6815M127.568 22.1559L127.568 23.858M80.7432 23.9186L127.568 23.858M127.568 23.858L129.087 23.9186L171.782 3.18856M129.087 3.24906L129.025 22.1559V23.8582H174.454V3.18856M174.454 3.18856H129.025M174.454 3.18856L131.515 23.9187M13.6924 3.24906L43.756 3.18856V22.1559M43.756 22.1559H13.6319M43.756 22.1559L43.8167 23.9186L13.6319 23.8581M13.6319 22.1559V3.18856M13.6319 22.1559L13.6925 23.9186L12.1739 23.8581M12.2356 23.9186L1 23.8581M180.102 25.3779L180.041 27.0197H185.872V25.3174M177.612 25.3174L176.459 24.8918L177.612 24.3441M177.673 25.3779L206.764 25.3174M177.673 24.4046L188.301 24.3441M188.362 24.4048L189.516 23.8582L190.488 22.885M199.78 21.2441L199.963 22.3988L200.934 23.372L202.392 23.8581L206.096 23.9188L208.95 21.9129H209.68L210.166 22.156L210.409 22.8851L209.923 23.3722L206.825 25.378M199.78 11.7605L201.662 11.7M199.78 12.9758L217.211 3.18856M192.735 18.5687L183.443 23.8582M194.678 22.9465L197.047 22.885M198.079 21.9731L198.018 15.8335M197.351 15.6509L196.562 16.0765L193.646 21.4264V21.9125L193.889 22.6416L194.618 22.8847M197.108 22.9466L197.775 22.6421L198.018 21.9129M198.079 15.8943L198.018 15.5907L197.775 15.3466L197.289 15.5907M197.837 16.8674L197.533 16.3197L197.047 16.0767L196.561 16.3197V17.2929L197.047 17.536L197.533 17.2929L197.775 16.8058M213.142 20.2709L215.996 23.858M199.78 18.0826L202.877 18.022L205.064 20.2104H213.08M201.723 20.7582L201.419 20.2106L200.933 19.9676L200.447 20.2106L200.205 20.6967L200.447 21.1838H201.419L201.661 20.6967M176.945 25.621L176.641 25.0744L176.155 24.8303L175.669 25.0744V26.0466L176.155 26.2896L176.641 26.0466L176.883 25.5605M169.17 3.24901L129.997 17.293M169.17 3.24901L134.127 17.293L142.448 17.3535M169.17 3.24901L129.754 14.6175M134.674 14.6781L159.149 6.59321M174.514 11.7605L156.477 11.7M153.866 11.7605L147.731 11.7M145.12 11.7605L143.116 11.7M139.289 11.7605L129.025 11.7M129.087 13.2198L134.857 13.1583M139.532 13.2198L141.658 13.1583M144.634 13.2198L151.132 13.1583M153.865 13.2198L174.453 13.1583M174.514 14.6779L150.647 14.6174M148.279 14.6779L140.93 14.6174M137.589 14.6779L134.613 14.6174H129.025M129.087 15.894L134.127 15.8335M138.074 15.894L145.787 15.8335M148.278 15.894L174.454 15.8335M174.514 17.3535L145.059 17.293M130.058 17.3535L129.025 17.293M139.775 18.8126L129.025 18.7511M142.205 18.8126L174.454 18.7511M127.629 3.24901L83.3543 22.1558M80.7432 22.2164L124.653 3.18856M122.77 3.24901L80.6815 11.7M84.8727 11.7606L122.709 3.18856M122.709 3.18856L80.6815 14.6176L88.7596 14.6779M122.709 3.18856L84.3861 14.6781M122.709 3.18856L80.6815 17.2931L92.1599 17.3535M122.709 3.18856L84.143 17.3536M89.0024 18.8126L80.6815 18.7511M91.6744 18.8126L127.568 18.7511M127.629 17.3535L94.7724 17.293M80.7432 15.894L85.2981 15.8335M88.5173 15.894L95.744 15.8335M98.4773 15.894L127.569 15.8335M127.629 14.6779L101.088 14.6174M98.4766 14.6779L91.6136 14.6174M127.629 13.2198L104.732 13.1583M101.878 13.2198L95.7436 13.1583M93.375 13.2198L89.4277 13.1583M86.3295 13.2198L80.6815 13.1583M80.7432 11.7605L90.6418 11.7M93.6178 11.7605L96.9586 11.7M99.2059 11.7605L104.733 11.7M107.709 11.7605L127.568 11.7M45.0309 22.2164L76.5513 3.18856M74.6078 3.18856L45.0309 11.7606L52.2576 11.7M74.6078 3.18856L48.3707 11.7001M74.6078 3.18856L45.0309 14.6781L50.8008 14.6174M74.6078 3.18856L48.3707 14.6176M74.6078 3.18856L45.0309 17.3536M74.6078 3.18856L48.3707 17.2931M51.1044 18.8126L44.9708 18.7511M53.5336 18.8126L79.2236 18.7511M79.2852 17.3535L55.6595 17.293M53.2907 17.3535L44.9708 17.293M45.0309 15.894L48.3707 15.8335M51.105 15.894L55.9027 15.8335M58.3923 15.894L79.2232 15.8335M79.2857 14.6779L60.2763 14.6174M53.291 14.6779L57.8458 14.6174M79.2852 13.2198L62.7049 13.1583M60.3358 13.2198L56.1447 13.1583M54.0197 13.2198L51.772 13.1583M48.9182 13.2198L44.9708 13.1583M54.7491 11.7605L56.3893 11.7M58.3923 11.7605L62.2187 11.7M64.9517 11.7605L79.2238 11.7M43.8161 3.24901L15.8179 22.1558M13.6928 22.2164L41.5701 3.18856M13.6928 11.7606L39.8695 3.18856M39.8695 3.18856L16.7909 11.7001M39.8695 3.18856L13.6928 14.6781M39.8695 3.18856L16.7909 14.6176M39.8695 3.18856L13.6928 17.3536M39.8695 3.18856L16.3052 17.2931M18.7943 18.8126L13.6319 18.7511M21.2234 18.8126L43.756 18.7511M23.1668 17.3535L43.7559 17.293M20.9806 17.3535L13.6319 17.293M13.6928 15.894L16.3052 15.8335M18.7941 15.894L23.1062 15.8335M25.3543 15.894L43.7561 15.8335M43.8164 14.6779L26.9933 14.6174M24.8673 14.6779L20.92 14.6174M18.7943 14.6779L13.6319 14.6174M13.6928 13.2198L17.0337 13.1583M19.767 13.2198L21.4062 13.1583M23.411 13.2198L26.9936 13.1583M29.2409 13.2198L43.7559 13.1583M43.816 11.7605L31.1226 11.7M28.9972 11.7605L25.2926 11.7M23.8964 11.7605L22.3781 11.7M20.0094 11.7605L13.6319 11.7M12.2354 17.3535L2.94331 17.293V18.7512H12.1739M7.07255 24.8303L8.34804 26.3501L7.80119 27.2626V28.4778L8.044 29.451M11.2634 24.8918L9.98787 26.2895L9.50226 26.5326H8.77385L8.28722 26.2895M9.80592 25.621L9.50267 25.3174L9.01706 25.0744L8.53146 25.5604L8.77426 26.0465L9.01706 26.2896L9.50267 26.0465L9.74547 25.5604M12.4785 26.35L11.6886 25.8035L10.7174 25.3174M13.2068 26.3503L13.3899 26.2896M7.86124 29.9978L8.04436 29.9371M9.32014 29.2686L10.4747 29.9372L11.6888 29.4511L12.4182 28.4779L12.1744 27.0197M7.6186 6.41065L7.07255 7.3223L7.55816 8.53852L8.5304 9.26764H9.74441M6.89064 4.9522L6.82994 4.64787M10.7775 5.19445L9.50204 4.64787H8.53082L7.55858 5.13395M10.5348 9.57215L11.2028 8.53846L11.6884 7.56528M12.2355 8.11305L10.7172 6.83632L10.2305 6.35024V5.6201L10.7172 5.13402L11.9312 3.91882M11.749 6.16757L11.6886 5.61996L11.203 5.37692L10.9602 5.61996L10.7174 6.10706L11.203 6.59314L11.6886 6.3501V6.10706M229.174 13.2198L236.888 13.1583M265.615 11.7605L257.294 11.7M285.049 19.7848L283.288 18.7511M280.191 14.6779L291.305 14.6174M291.367 15.894L282.074 15.8335M288.693 19.7848L287.418 18.7511M323.433 3.24901L325.073 4.16169L327.016 4.89081M328.777 5.19427L332.361 5.13377L335.761 4.40465M322.704 8.35579L321.915 9.51048L322.4 10.7267L323.372 11.4558L324.587 11.2128M321.976 6.89689L322.158 6.83623M325.619 7.38384L324.588 6.83623H323.373L322.401 7.07927M325.376 11.5175L326.044 10.7268L326.531 9.75465M327.077 10.5443L325.559 9.0245L325.316 8.53842V7.8093L325.559 7.3222L327.017 5.86396M326.834 8.11288L326.531 7.80934L326.044 7.56528L325.801 7.80934L325.559 8.05238L325.801 8.53846L326.044 8.7815L326.531 8.53846L326.774 8.05238M141.233 53.3431L141.173 53.5251H141.416V53.2814L141.233 53.3431ZM172.328 55.5311L153.318 55.4696L152.347 54.9836L151.923 54.0719L151.861 39.1778L152.348 37.9615L153.379 37.536L172.268 37.4755L173.483 37.9615L174.028 39.2384L173.968 54.0116L173.483 54.9834L172.328 55.5311ZM159.696 32.1871L159.634 27.2627L159.878 26.5327L160.849 26.2896L161.578 26.5327L161.883 27.3234L161.822 31.8827L161.822 32.1255H161.578L161.335 32.3685H159.878V32.1255L159.696 32.1871ZM12.2354 14.6778L12.1739 15.8336L2.94331 15.8336V14.6174L12.2354 14.6778ZM7.86124 29.7548L12.6599 26.2896L12.9035 26.0466L13.1463 26.2897L13.2068 26.5943L8.28722 30.1804L8.044 30.1801L7.80119 29.9371L7.86124 29.7548ZM7.37683 4.95113L10.7177 9.7545L10.7174 9.99769H10.4746L10.2917 10.0581L6.82994 5.1337V4.89091L7.07274 4.64787L7.37683 4.95113ZM322.219 6.89648L325.559 11.6998L325.559 12.1861H325.316L325.134 12.2466L321.672 7.32226V7.07927L321.915 6.83623L322.219 6.89648Z" stroke="#FF3C00" stroke-width="0.6" stroke-miterlimit="10"/>
</svg>
