<svg xmlns="http://www.w3.org/2000/svg" width="102" height="50" viewBox="0 0 102 50">
  <g id="Group_2493" data-name="Group 2493" transform="translate(8558 6547)">
    <rect id="Rectangle_22707" data-name="Rectangle 22707" width="102" height="50" transform="translate(-8558 -6547)" fill="rgba(255,255,255,0)"/>
    <g id="automotive_axialfluxmotors" transform="translate(-8558 -6531.644)">
      <path id="Path_17223" data-name="Path 17223" d="M0,24.65A2.4,2.4,0,0,0,1.851,26.1c.911.186,1.839.29,2.764.4,1.477.178,2.956.335,4.434.5.286.032.573.046.9.072.345-.474.7-.925,1.008-1.4a1.132,1.132,0,0,0,.112-.565c.012-.751.007-1.5.007-2.255a7.128,7.128,0,0,1,3.356-6,8.141,8.141,0,0,1,8.976.181,7.382,7.382,0,0,1,2.225,2.929,12.028,12.028,0,0,1,.929,4.181c.048.791.035,1.585.049,2.386a.942.942,0,0,0,.268.108c.778.009,1.557.016,2.335,0a1.433,1.433,0,0,0,.5-.15,8.43,8.43,0,0,0,.968-.445,3.758,3.758,0,0,1,1.98-.435q12.248.022,24.5,0a1.811,1.811,0,0,1,1.408.446A2.878,2.878,0,0,0,61,26.819c.772-.052,1.551-.011,2.342-.011a3.066,3.066,0,0,0-.093-1.465,9.461,9.461,0,0,1,1.091-6.21,6.317,6.317,0,0,1,4.106-3.05,10.73,10.73,0,0,1,5.281-.028,6.644,6.644,0,0,1,5.033,4.891,9.966,9.966,0,0,1,.415,2.876v.832c.067.05.1.1.136.1a17.877,17.877,0,0,0,3.5-.4,5.662,5.662,0,0,0,3.154-2.315,1.162,1.162,0,0,0,.178-.617c.017-.994.008-1.99.008-2.988l-.446-.536c.083-.223.167-.447.259-.7a2.464,2.464,0,0,0-1.8-2.421,5.907,5.907,0,0,1,.066-1.459c.123-.648.143-1.314.214-2.053a2.449,2.449,0,0,0,.218-.3,1.127,1.127,0,0,0-.208-1.6c-.54-.552-1.1-1.082-1.62-1.585h-.8A37.7,37.7,0,0,0,75.057,2.16l.559-.466a3.984,3.984,0,0,0-1.533-.413c-.676-.119-1.365-.173-2.05-.236C69.667.824,67.3.6,64.935.4,64.117.323,63.294.274,62.473.249q-3.5-.11-7-.188C54.049.028,52.625-.01,51.2,0c-1.979.017-3.959.044-5.937.13Q42.8.242,40.351.513a10.241,10.241,0,0,0-2.394.547c-1.541.564-3.071,1.172-4.559,1.864-1.606.746-3.158,1.606-4.732,2.418C27.01,6.2,25.33,7.006,23.711,7.924a6.508,6.508,0,0,1-3.018.82c-1.055.048-2.106.212-3.153.364a57.854,57.854,0,0,0-5.8,1.066,38.733,38.733,0,0,0-7.719,2.682,10.308,10.308,0,0,0-2.52,1.6A1.912,1.912,0,0,0,.829,15.98c.011.508,0,1.017,0,1.542A1.449,1.449,0,0,0,.25,18.858q0,2.321-.008,4.644c0,.235.075.5-.239.618v.531Zm49.806-.96H29.01c0-.252.009-.469,0-.685-.046-.838-.07-1.676-.152-2.51a10.8,10.8,0,0,0-1.381-4.323A10.507,10.507,0,0,1,25.965,11.9a3.634,3.634,0,0,1,.013-1.436l2.265.365a7.974,7.974,0,0,0,2.254.131c.682-.084,1.367-.154,2.052-.215q2.288-.205,4.577-.4,3.253-.273,6.505-.534,2.556-.2,5.115-.385a1.461,1.461,0,0,1,.755.028A13.268,13.268,0,0,1,49.5,10.8a21.253,21.253,0,0,0,.123,4.493c.087.812.21,1.619.3,2.43a29.456,29.456,0,0,1-.011,5.426,4.7,4.7,0,0,1-.1.539ZM68.941,8.4c.777,1.857,1.039,3.682-.178,5.445a10.645,10.645,0,0,0-2.852.867,7.508,7.508,0,0,0-4.077,5.137c-.231.871-.351,1.769-.531,2.7-.363.251-.781.506-1.16.81a1.742,1.742,0,0,1-1.167.379c-2.737-.014-5.475-.008-8.212-.008h-.6c.027-.583.024-1.11.079-1.631a23.2,23.2,0,0,0-.214-5.748,28.488,28.488,0,0,1-.2-6.477,4.493,4.493,0,0,1,.083-.447,2.686,2.686,0,0,1,.286-.056c1.684-.119,3.368-.251,5.054-.353,1.861-.113,3.724-.2,5.587-.295,1.586-.084,3.171-.181,4.758-.248,1.084-.046,2.169-.05,3.342-.076Zm.308,5.353a.488.488,0,0,1,.019-.153,5.193,5.193,0,0,0,.192-4.545c-.49-1.25-1.029-2.485-1.588-3.707a16.15,16.15,0,0,0-1-1.794,14.433,14.433,0,0,0-1.03-1.459,1.7,1.7,0,0,0-1.259-.666c-2.307-.129-4.613-.295-6.922-.372C55.552.984,53.437.979,51.323,1c-2.313.023-4.626.069-6.934.186a20.887,20.887,0,0,0-3.223.466,25.288,25.288,0,0,0-5.9,2.235,41.889,41.889,0,0,0-4.246,2.474c-.781.5-1.547,1.03-2.314,1.556a2.5,2.5,0,0,1-1.855.543,7.12,7.12,0,0,0-1.064,0,3.188,3.188,0,0,1-.366-.045c.056-.082.073-.131.107-.151,1.6-.908,3.2-1.821,4.806-2.717.795-.442,1.6-.875,2.414-1.272.939-.454,1.889-.887,2.852-1.285,1.21-.5,2.42-1.009,3.662-1.419A22.226,22.226,0,0,1,44.7.666C47.16.493,49.627.385,52.094.353q5.336-.068,10.67.239c2.264.133,4.521.3,6.773.563a9.759,9.759,0,0,1,4.634,1.7c.978.694,1.921,1.424,2.823,2.209.819.71,1.6,1.459,2.4,2.19.391.357.787.709,1.167,1.053l2.13-.272,1.836,1.8a2.025,2.025,0,0,1-.236,1.114,7.052,7.052,0,0,1-3.03-.313l-3.437.986a33.038,33.038,0,0,0,.887,3.742,4.054,4.054,0,0,0,2.636,2.613,12.167,12.167,0,0,0,3.4.567c.35.019.7.019,1.082.028v3.156a5.5,5.5,0,0,1-3.25,2.381,16.57,16.57,0,0,1-3.125.343c0-.263,0-.48,0-.7a9.876,9.876,0,0,0-.807-3.934,6.584,6.584,0,0,0-3.56-3.592,10.449,10.449,0,0,0-6.857-.361,6.684,6.684,0,0,0-4.643,4.123,10,10,0,0,0-.737,3.881c0,.238-.016.474-.025.727H61.578a18.266,18.266,0,0,1,.634-5.017,7.3,7.3,0,0,1,5.714-5.264,14.017,14.017,0,0,1,6.8.1,7.209,7.209,0,0,1,5.4,5.326,17.106,17.106,0,0,1,.515,3.4c.015.18-.055.393.216.609a3.835,3.835,0,0,0,.06-.546,14.128,14.128,0,0,0-.742-4.156,7.46,7.46,0,0,0-4.057-4.434,10.4,10.4,0,0,0-3.473-.859,12.772,12.772,0,0,0-2.927-.007,3.117,3.117,0,0,1-.459,0ZM48.2,9.174,33.51,10.367c-.113-.181-.194-.308-.25-.4A3.659,3.659,0,0,1,35,7.835a1.292,1.292,0,0,0-1.056-.8,11.312,11.312,0,0,0-1.426-.125,1.794,1.794,0,0,1,.263-.442,7.488,7.488,0,0,1,.805-.573,36.938,36.938,0,0,1,6.093-2.969,18.844,18.844,0,0,1,5.8-1.079c.975-.062,1.953-.084,2.93-.114.417-.013.833,0,1.262,0C49.176,4.232,48.694,6.669,48.2,9.174Zm-20,15.113c-.056-.62-.088-1.126-.148-1.627-.134-1.116-.206-2.247-.435-3.345a6.326,6.326,0,0,0-4.213-4.9,13.294,13.294,0,0,0-3.847-.7,14.864,14.864,0,0,0-3.839.269,14.911,14.911,0,0,0-5.447,2.4c-1.251.841-2.488,1.706-3.751,2.53a10.344,10.344,0,0,1-3.207,1.428,5.357,5.357,0,0,1-2.186.188c-.021-.329-.04-.633-.061-.961L.545,19.4c-.011-.638-.154-1.3.534-1.654.035-.794.067-1.54.1-2.3.147-.045.25-.077.353-.11a13.424,13.424,0,0,0,2.08-.682,27.7,27.7,0,0,1,9.027-2.631c1.318-.18,2.635-.388,3.935-.662a15.128,15.128,0,0,0,5.392-2.193,1.707,1.707,0,0,1,1.127-.331,3,3,0,0,0,.664-.021,32.759,32.759,0,0,1,3.708-.092l-1.831,1.445a9.91,9.91,0,0,0,1.286,5.572,17.654,17.654,0,0,1,.84,1.655A14.44,14.44,0,0,1,28.7,23.77a.718.718,0,0,1-.061.166l-.441.35ZM51.286,8.953a41.156,41.156,0,0,1,1-7.2c.172-.016.282-.037.39-.036q3.6.064,7.2.134c.394.008.788.031,1.179.066,1.039.093,2.074.236,3.114.279a1.771,1.771,0,0,1,1.443.811,4.22,4.22,0,0,1,.423.822,9.018,9.018,0,0,1,.593,3.89,3.3,3.3,0,0,1-.067.431l-15.275.8ZM9.745,24.857c.043-.6.067-1.147.126-1.691.128-1.207.21-2.424.427-3.616a6.17,6.17,0,0,1,4.783-5.126,15.764,15.764,0,0,1,4.7-.414,11.153,11.153,0,0,1,3.273.557A6.054,6.054,0,0,1,27.3,19.182a30.218,30.218,0,0,1,.586,5.061,1.329,1.329,0,0,1-.044.272h-.885c-.045-.058-.068-.074-.071-.093-.015-.109-.028-.218-.035-.327a13.083,13.083,0,0,0-.8-3.878,7.469,7.469,0,0,0-2.449-3.4,8.21,8.21,0,0,0-6.6-1.33c-3.36.568-6.323,3.981-6.222,7.305.02.676-.048,1.352-.077,2.071H9.745Zm-8.622-3.9c.147-.02.252-.038.359-.049a11.486,11.486,0,0,0,2.545-.48,14.174,14.174,0,0,0,3.365-1.731c1.271-.852,2.534-1.716,3.806-2.568a3.782,3.782,0,0,1,.5-.239.344.344,0,0,1-.079.285,6.263,6.263,0,0,0-1.508,2.909,23.59,23.59,0,0,0-.513,3.868c-.048.633-.095,1.268-.147,1.952-.479.02-.941.033-1.4.057a45.467,45.467,0,0,1-6.263-.024A1.256,1.256,0,0,1,.7,24.273a.528.528,0,0,1-.027-.184l.446-.345Zm.247-5.987a8.882,8.882,0,0,1,.845-.71,17.967,17.967,0,0,1,1.711-1.026,39.093,39.093,0,0,1,9.645-3.174c2.227-.476,4.487-.757,6.745-1.03a11.663,11.663,0,0,1,1.335-.007,3.99,3.99,0,0,1-.573.414,22.224,22.224,0,0,1-3.583,1.421,48.841,48.841,0,0,1-5.762,1.025A26.055,26.055,0,0,0,3.62,14.352a7.533,7.533,0,0,1-2.25.612Zm59.44,9.676h-.857q-14.749-.018-29.5-.037c-.533,0-1.066-.03-1.6-.049-.115,0-.228-.02-.275-.024.115-.193.227-.384.31-.523h.835q14.581,0,29.164-.012A3.636,3.636,0,0,1,60.81,24.641Zm24.783-6.315c-.96-.088-1.8-.125-2.625-.254a8.722,8.722,0,0,1-1.789-.486,3.729,3.729,0,0,1-2.33-2.779c.489.214.908.409,1.338.583a2.874,2.874,0,0,0,2.564-.145,10.738,10.738,0,0,0,.969-.686c.024-.017.067-.007.1-.009l.1.492c1.127.277,1.457.674,1.756,2.093a1.239,1.239,0,0,0-.081,1.192Zm-58.682,6.6q17.884,0,35.709,0a1.089,1.089,0,0,1,.252.063v.305H26.911ZM50.805,1.3c0,.04-.008.078-.012.118-.107.007-.214.019-.322.017-2.066-.008-4.129.056-6.188.24a17.3,17.3,0,0,0-3.98.749,36.572,36.572,0,0,0-6.745,3.142A4.629,4.629,0,0,0,32.1,6.974,5.324,5.324,0,0,0,28.579,9.21c.087.23.147.392.216.573,1.358.706,2.832.524,4.278.539a14.49,14.49,0,0,1-6.969-.2c.881-.644,1.673-1.236,2.48-1.808A44.973,44.973,0,0,1,33.85,4.969c1.162-.6,2.326-1.2,3.518-1.739a17.561,17.561,0,0,1,4.81-1.509c1.537-.21,3.09-.312,4.64-.4,1.2-.066,2.4-.037,3.6-.048.128,0,.256.013.385.02ZM9.84,26.746c-.226,0-.4.016-.576,0q-2.311-.253-4.621-.515c-.726-.082-1.455-.142-2.175-.264a2.956,2.956,0,0,1-1.832-.849c-.258-.292-.286-.374-.255-.88a1.558,1.558,0,0,0,1.59.994c.486.011.972.092,1.458.084,2.285-.033,4.568-.088,6.853-.131.164,0,.328.025.573.046a10.957,10.957,0,0,1-1.013,1.519ZM23.214,8.558a1.58,1.58,0,0,1,.234-.214c.587-.311,1.18-.612,1.769-.92q2.294-1.2,4.584-2.41c.923-.484,1.829-1,2.775-1.436,1.327-.612,2.676-1.181,4.03-1.733A14.228,14.228,0,0,1,40.24.808c.3-.037.61-.035,1-.056-.808.215-1.521.376-2.215.595A54.707,54.707,0,0,0,31.54,4.608c-.955.466-1.863,1.027-2.812,1.505A37.8,37.8,0,0,0,24.8,8.449l-1.589.108Zm54.931,3.276,3.046-.873a1.939,1.939,0,0,1-.342,2.956l-2.441-.948C78.331,12.635,78.243,12.252,78.145,11.834ZM33.445,8.8c-.111.246-.207.467-.311.685a.887.887,0,0,1-.953.565c-.752-.065-1.508-.078-2.257-.158a1.161,1.161,0,0,1-1.033-.567,1.376,1.376,0,0,1,.8-.779,4.666,4.666,0,0,1,2-.441A1.756,1.756,0,0,1,33.445,8.8Zm16.472.305a59.574,59.574,0,0,1,1.22-7.362,3.88,3.88,0,0,1,.4-.021c.127.007.254.032.431.056a50.6,50.6,0,0,0-.987,7.183l-1.062.146Zm.826-7.343c-.4,2.473-.789,4.876-1.184,7.317a1.874,1.874,0,0,1-.975-.031,53.686,53.686,0,0,1,1.489-7.3c.163-.012.271-.027.378-.025a2.364,2.364,0,0,1,.291.04ZM80.631,8a66.844,66.844,0,0,0-6.324-5.4l.437-.234a25.491,25.491,0,0,1,5.513,4.076,13.664,13.664,0,0,1,1.4,1.418L80.63,8ZM51.34,1.434c0-.052,0-.1.007-.157.218,0,.435,0,.653,0q4,.074,8,.147c.445.008.891-.021,1.333.011.971.069,1.939.2,2.911.239a1.957,1.957,0,0,1,1.588.819,13.82,13.82,0,0,1,1.437,2.215c.518,1.049,1.026,2.1,1.464,3.183.013.033-.009.08-.021.159h-.55c-.055-.135-.1-.235-.136-.337A25.236,25.236,0,0,0,66.383,3.74,9.116,9.116,0,0,0,65.425,2.4a1.223,1.223,0,0,0-.869-.441c-1.5-.126-3-.305-4.5-.376-2-.093-4-.108-5.994-.146-.733-.015-1.468,0-2.2,0H51.34ZM78.57,13.384a6.859,6.859,0,0,1,2.024.8,2.346,2.346,0,0,0,1.8.17c.255-.07.5-.186.75-.271a.755.755,0,0,1,.215,0c.037.1.072.2.1.277a2.87,2.87,0,0,1-3.065.8,5.719,5.719,0,0,1-1.709-.9c-.051-.211-.107-.423-.151-.637a.873.873,0,0,1,.032-.239ZM63.131,26.495c-.23.015-.4.035-.574.036-.712,0-1.427-.045-2.134.014-.792.067-1.259-.393-1.85-.932,1.546,0,2.975-.005,4.408,0C63.035,25.928,63.075,26.166,63.131,26.495ZM82.86,11.287c.08.843.156,1.642.236,2.491a2.725,2.725,0,0,1-1.911.331c1-.855.884-1.89.576-3.016l1.1.2ZM30.742,25.647a3.737,3.737,0,0,1-1.533.685,20.784,20.784,0,0,1-2.289.021v-.707h3.821Zm2.9-17.13a1.963,1.963,0,0,0-1.512-.681,14.389,14.389,0,0,0-1.656.065,4.952,4.952,0,0,1,3.261-.617,1.059,1.059,0,0,1,.848.449l-.943.784ZM83.69,13.88a3.065,3.065,0,0,1-.338-2.611l.712.044a5.08,5.08,0,0,1-.374,2.568Zm-16.7-5.726c-.1-1.054-.19-2.06-.3-3.211a20.7,20.7,0,0,1,1.135,3.071C67.524,8.277,67.243,8.132,66.986,8.154Zm7.056-5.748-1.678-.942a6.442,6.442,0,0,1,2.744.352ZM59.922,23.844l1.345-.909v1.456a1.244,1.244,0,0,1-.292-.046C60.658,24.2,60.346,24.047,59.922,23.844ZM.672,19.682A18.763,18.763,0,0,1,.8,23.45c-.005.046-.076.086-.166.182a1.532,1.532,0,0,1-.107-.321,15.109,15.109,0,0,1,.147-3.63Z" transform="translate(0 0)" fill="#ff3c00"/>
      <path id="Path_17224" data-name="Path 17224" d="M282.4,86.281c.247-.074.491-.162.742-.222a7.336,7.336,0,0,0,5.433-6.131,7.288,7.288,0,0,0-6.5-8.143,7.27,7.27,0,0,0-2.1,14.378,1.649,1.649,0,0,1,.293.116H282.4Zm-1.039-.273a6.99,6.99,0,1,1,6.989-7.048A7,7,0,0,1,281.357,86.007Z" transform="translate(-210.023 -54.994)" fill="#ff3c00"/>
      <path id="Path_17225" data-name="Path 17225" d="M57.845,86.267l.628-.159a7.289,7.289,0,1,0-7.909-10.866,7.247,7.247,0,0,0,1.951,9.641,7.383,7.383,0,0,0,2.907,1.265,1.523,1.523,0,0,1,.286.121h2.138ZM56.784,72.036a6.979,6.979,0,1,1-6.99,7.028,7,7,0,0,1,6.99-7.028Z" transform="translate(-37.95 -54.981)" fill="#ff3c00"/>
      <path id="Path_17226" data-name="Path 17226" d="M186.906,48.323c1.148.092,2.362.024,3.576.038a2.488,2.488,0,0,0,.749-1.727c.048-.393-.244-.65-.665-.65a6.667,6.667,0,0,0-.789.094c-.725.086-1.449.194-2.175.251a.91.91,0,0,0-.889.737C186.586,47.495,186.405,47.913,186.906,48.323Zm.3-1.662c1.128-.131,2.223-.265,3.322-.377.131-.013.274.1.394.141a2.524,2.524,0,0,1-.564,1.656H187.27c-.234,0-.366-.129-.445-.409.109-.293.239-.638.378-1.011Z" transform="translate(-143.014 -35.248)" fill="#ff3c00"/>
      <path id="Path_17227" data-name="Path 17227" d="M269.66,45.41c.42,0,.842-.017,1.263,0a.857.857,0,0,0,.941-.662c.091-.271.192-.539.27-.814a.642.642,0,0,0-.692-.907c-.6.021-1.19.106-1.783.17-.418.045-.836.089-1.25.154a.7.7,0,0,0-.639.4,1.747,1.747,0,0,0-.22,1.268.685.685,0,0,0,.714.382C268.729,45.412,269.2,45.408,269.66,45.41Zm-1.538-1.727c1.11-.127,2.2-.257,3.3-.374.252-.027.415.115.493.386-.106.312-.22.642-.33.976a.6.6,0,0,1-.638.459c-.864-.009-1.727.005-2.591-.009a2.254,2.254,0,0,1-.535-.138C267.715,44.49,267.956,44.153,268.122,43.683Z" transform="translate(-205.039 -32.984)" fill="#ff3c00"/>
      <path id="Path_17228" data-name="Path 17228" d="M295.994,12.248a2.976,2.976,0,0,0-.931-1.168,16.829,16.829,0,0,0-4.021-2.9,7.407,7.407,0,0,0-1.57-.52c-.8-.171-1.616-.273-2.428-.389a6.15,6.15,0,0,0-.763,0c.491.75.947,1.411,1.365,2.1.437.715.844,1.449,1.247,2.185.391.714.76,1.441,1.159,2.2.76-.048,1.49-.052,2.209-.15a10.292,10.292,0,0,0,2.713-.6,1.922,1.922,0,0,0,1.02-.746Zm-5.735,1.2-3.39-5.9a18.533,18.533,0,0,1,1.954.263,16.83,16.83,0,0,1,2.528.783,11.886,11.886,0,0,1,2.644,1.874c.414.328.793.7,1.2,1.045a1.316,1.316,0,0,1,.5.684,2.757,2.757,0,0,1-1.4.739c-.713.155-1.434.295-2.158.389-.61.08-1.231.084-1.876.123Z" transform="translate(-219.443 -5.559)" fill="#ff3c00"/>
      <path id="Path_17229" data-name="Path 17229" d="M310,41.228c-.422,0-.845-.012-1.267,0a.935.935,0,0,0-1.031.835,7.134,7.134,0,0,0-.139,1.379.946.946,0,0,0,.911.965c.932.035,1.868.036,2.8,0a1.021,1.021,0,0,0,.971-.938c.061-.348.1-.7.134-1.05a1.019,1.019,0,0,0-1.044-1.18c-.443-.02-.889,0-1.334,0Zm.041.283c.422,0,.845-.013,1.266.005a.753.753,0,0,1,.79.856,9.846,9.846,0,0,1-.14,1.047.762.762,0,0,1-.757.71c-.887.033-1.777.035-2.665,0a.7.7,0,0,1-.69-.81,7.3,7.3,0,0,1,.123-1.116c.1-.522.283-.672.808-.691.422-.016.844,0,1.266,0Z" transform="translate(-235.756 -31.599)" fill="#ff3c00"/>
      <path id="Path_17230" data-name="Path 17230" d="M352.909,90.683a1.517,1.517,0,0,0,.18-.139.9.9,0,0,0,.289-1.017c-.165-.368-.548-.4-.909-.426a4.75,4.75,0,0,0-1.763.261,3.092,3.092,0,0,0-.6.358c.437.743,1.315,1.034,2.8.961Zm-2.39-.881a2.973,2.973,0,0,1,2.7-.141l-.327.734a3.126,3.126,0,0,1-2.37-.595Z" transform="translate(-268.368 -68.293)" fill="#ff3c00"/>
      <path id="Path_17231" data-name="Path 17231" d="M11.627,63.531c.981.626,4.463.427,6.335-.157.319-.693.652-1.41,1-2.162a3.865,3.865,0,0,0-1.855-.528c-.973-.061-1.955-.023-2.932-.009a1.063,1.063,0,0,0-.507.133,3.465,3.465,0,0,0-2.038,2.725Zm.308-.092a2.4,2.4,0,0,1,.757-1.56,2.845,2.845,0,0,1,1.5-.921,11.756,11.756,0,0,1,3.7.141c.219.052.5.048.646.341-.26.559-.529,1.135-.8,1.715a14.314,14.314,0,0,1-5.807.283Z" transform="translate(-8.912 -46.49)" fill="#ff3c00"/>
      <path id="Path_17232" data-name="Path 17232" d="M9.884,93.126a4.145,4.145,0,0,0,1.252-3.418,8.266,8.266,0,0,0-4.627.7c-.041.488-.123,1.01-.122,1.53A.889.889,0,0,0,7.3,92.946c.857.085,1.719.122,2.584.179Zm-.154-.309a11.086,11.086,0,0,1-2.872-.293,2.931,2.931,0,0,1-.048-1.949,7.78,7.78,0,0,1,4.014-.6,3.375,3.375,0,0,1-1.092,2.843Z" transform="translate(-4.897 -68.712)" fill="#ff3c00"/>
      <path id="Path_17233" data-name="Path 17233" d="M293.576,86.11a5.137,5.137,0,1,0-5.118,5.1A5.138,5.138,0,0,0,293.576,86.11Zm-.282-.018a4.851,4.851,0,0,1-9.7.056,4.851,4.851,0,1,1,9.7-.056Z" transform="translate(-217.159 -62.065)" fill="#ff3c00"/>
      <path id="Path_17234" data-name="Path 17234" d="M63.932,81.036a5.11,5.11,0,1,0,.035,10.22,5.11,5.11,0,1,0-.035-10.22Zm-.008.28a4.828,4.828,0,1,1-4.836,4.864,4.841,4.841,0,0,1,4.836-4.863Z" transform="translate(-45.07 -62.115)" fill="#ff3c00"/>
    </g>
  </g>
</svg>
