<svg width="256" height="256" viewBox="0 0 256 256" fill="none" xmlns="http://www.w3.org/2000/svg">
<circle cx="128" cy="128" r="128" fill="#DFDCD5"/>
<path d="M152.775 80.6678C149.58 76.5356 146.072 73.008 142.347 70.1876C142.17 70.0545 140.872 69.1865 140.018 68.6235C137.439 66.9235 137.389 66.893 136.723 67.0732C136.307 67.1842 135.966 67.4837 135.802 67.883C132.427 76.0198 127.929 83.1637 122.435 89.118C117.693 94.2568 111.949 98.4445 106.395 102.493C104.517 103.861 102.576 105.278 100.69 106.714C100.36 106.964 100.033 107.214 99.7082 107.46C95.8118 110.411 92.1316 113.201 89.7161 117.852C87.5086 122.103 86.2773 127.067 86.0526 132.6C85.4702 146.949 89.7244 163.553 98.696 181.956C99.0315 182.644 99.8607 182.929 100.551 182.594C101.239 182.258 101.525 181.429 101.189 180.738C92.42 162.754 88.2601 146.594 88.8231 132.711C89.0311 127.586 90.1598 123.016 92.1788 119.128C94.3031 115.031 97.5839 112.547 101.383 109.671C101.711 109.421 102.041 109.171 102.373 108.919C104.237 107.499 106.164 106.093 108.031 104.734C113.694 100.608 119.548 96.3368 124.476 90.9982C129.854 85.1716 134.308 78.2606 137.73 70.44C138.883 71.1915 140.436 72.2287 140.675 72.4007C144.205 75.0769 147.539 78.4298 150.584 82.3678C157.384 91.1646 162.262 102.033 164.694 113.797C167.129 125.575 166.952 137.489 164.181 148.252C161.552 158.475 156.435 167.374 149.389 173.988C142.295 180.647 133.786 184.058 120.935 185.392C119.301 185.561 117.435 185.725 115.505 185.755L155.454 133.826C155.775 133.407 155.831 132.841 155.598 132.367C155.365 131.893 154.882 131.593 154.353 131.593H132.563L145.071 91.5362C145.27 90.9012 144.987 90.2134 144.399 89.9C143.812 89.5866 143.085 89.7336 142.666 90.2522L99.6777 143.471C99.3421 143.887 99.2756 144.459 99.5058 144.941C99.7359 145.424 100.224 145.729 100.756 145.729H124.609L111.367 186.72C111.159 187.361 111.445 188.06 112.041 188.373C112.246 188.481 112.468 188.531 112.684 188.531C112.901 188.531 113.1 188.484 113.289 188.393C113.453 188.468 113.636 188.512 113.83 188.517C114.187 188.529 114.545 188.531 114.897 188.531C117.163 188.531 119.343 188.34 121.22 188.146C127.571 187.486 132.663 186.382 137.244 184.671C142.613 182.669 147.203 179.832 151.283 176.004C158.712 169.03 164.101 159.67 166.863 148.937C172.731 126.127 167.201 99.3291 152.775 80.665V80.6678ZM127.832 144.769C127.968 144.348 127.896 143.884 127.632 143.527C127.369 143.169 126.956 142.955 126.512 142.955H103.657L140.256 97.6485L129.354 132.564C129.224 132.986 129.299 133.443 129.56 133.798C129.82 134.153 130.236 134.364 130.677 134.364H151.535L116.462 179.959L127.829 144.769H127.832Z" fill="black"/>
</svg>
