<svg width="256" height="256" viewBox="0 0 256 256" fill="none" xmlns="http://www.w3.org/2000/svg">
<circle cx="128" cy="128" r="128" fill="#DFDCD5"/>
<path d="M175.496 106.063V84.2582C175.496 74.9977 151.154 70 128.248 70C115.876 70 104.225 71.3562 95.444 73.8218C85.9949 76.4732 81 80.0814 81 84.2582V106.063C81 108.093 82.1704 109.918 84.2366 111.529C82.0872 113.202 81 115.032 81 116.987V138.792C81 140.875 82.2369 142.744 84.4085 144.389C82.1482 146.097 81 147.972 81 149.975V171.779C81 181.04 105.342 186.037 128.248 186.037C140.62 186.037 152.272 184.681 161.052 182.216C170.501 179.564 175.496 175.953 175.496 171.779V149.975C175.496 147.964 174.348 146.092 172.082 144.383C174.337 142.68 175.496 140.803 175.496 138.792V116.987C175.496 115.029 174.404 113.199 172.251 111.527C174.395 109.857 175.496 108.021 175.496 106.063ZM96.1928 76.4926C104.735 74.0936 116.12 72.7734 128.248 72.7734C140.376 72.7734 151.758 74.0936 160.303 76.4926C168.08 78.6753 172.723 81.5791 172.723 84.2582C172.723 86.9373 168.08 89.8411 160.303 92.0238C151.761 94.4228 140.376 95.743 128.248 95.743C116.12 95.743 104.738 94.4228 96.1928 92.0238C88.4161 89.8411 83.7734 86.9373 83.7734 84.2582C83.7734 81.5791 88.4161 78.6753 96.1928 76.4926ZM160.301 179.545C151.758 181.944 140.374 183.264 128.245 183.264C116.117 183.264 104.735 181.944 96.1901 179.545C88.4134 177.362 83.7707 174.458 83.7707 171.779V155.064C90.7847 161.052 109.971 164.233 128.245 164.233C140.618 164.233 152.269 162.877 161.049 160.411C166.402 158.908 170.324 157.1 172.72 155.053V171.779C172.72 174.458 168.077 177.362 160.301 179.545ZM172.72 149.975C172.72 152.654 168.077 155.557 160.301 157.74C151.758 160.139 140.374 161.459 128.245 161.459C116.117 161.459 104.735 160.139 96.1901 157.74C88.4134 155.557 83.7707 152.654 83.7707 149.975C83.7707 148.408 85.4042 146.988 86.949 145.995C95.5688 150.615 112.257 153.05 128.245 153.05C140.618 153.05 152.269 151.694 161.049 149.229C164.472 148.269 167.304 147.182 169.531 145.989C171.594 147.318 172.72 148.707 172.72 149.975ZM160.301 146.558C151.758 148.957 140.374 150.277 128.245 150.277C116.117 150.277 104.735 148.957 96.1901 146.558C88.4134 144.375 83.7707 141.471 83.7707 138.792V122.077C90.7847 128.065 109.971 131.246 128.245 131.246C140.618 131.246 152.269 129.889 161.049 127.424C166.402 125.921 170.324 124.112 172.72 122.066V138.792C172.72 141.471 168.077 144.375 160.301 146.558ZM172.72 116.987C172.72 119.667 168.077 122.57 160.301 124.753C151.758 127.152 140.374 128.472 128.245 128.472C116.117 128.472 104.735 127.152 96.1901 124.753C88.4134 122.57 83.7707 119.667 83.7707 116.987C83.7707 115.484 85.2766 114.117 86.7299 113.149C95.2859 117.844 112.121 120.321 128.245 120.321C140.618 120.321 152.269 118.965 161.049 116.499C164.583 115.506 167.492 114.383 169.75 113.143C171.253 114.142 172.72 115.495 172.72 116.987ZM160.301 113.828C151.758 116.228 140.374 117.548 128.245 117.548C116.117 117.548 104.735 116.228 96.1901 113.828C88.4134 111.646 83.7707 108.742 83.7707 106.063V89.3474C90.7847 95.3353 109.971 98.5164 128.245 98.5164C140.618 98.5164 152.269 97.1602 161.049 94.6946C166.402 93.1914 170.324 91.3831 172.72 89.3363V106.063C172.72 108.742 168.077 111.646 160.301 113.828Z" fill="black"/>
</svg>
