<svg width="256" height="256" viewBox="0 0 256 256" fill="none" xmlns="http://www.w3.org/2000/svg">
<circle cx="128" cy="128" r="128" fill="#DFDCD5"/>
<path d="M204.094 133.758L192.876 111.679C192.64 111.213 192.16 110.919 191.639 110.919H165.605V91.3867C165.605 90.6212 164.984 90 164.219 90H88.0182C87.2528 90 86.6316 90.6212 86.6316 91.3867V103.939C86.6316 104.704 87.2528 105.326 88.0182 105.326C88.7837 105.326 89.4049 104.704 89.4049 103.939V92.7733H162.832V142.433C162.682 142.377 162.521 142.341 162.35 142.341H135.645C134.88 142.341 134.258 142.963 134.258 143.728C134.258 144.494 134.88 145.115 135.645 145.115H162.35C162.519 145.115 162.68 145.079 162.832 145.023V153.202H117.84C117.025 148.163 112.646 144.302 107.379 144.302C102.112 144.302 97.7333 148.163 96.9179 153.202H85.8828C85.1173 153.202 84.4961 153.823 84.4961 154.589C84.4961 155.354 85.1173 155.975 85.8828 155.975H96.8347C97.3755 161.317 101.899 165.499 107.379 165.499C112.859 165.499 117.382 161.317 117.923 155.975H171.701C172.242 161.317 176.765 165.499 182.246 165.499C187.726 165.499 192.249 161.317 192.79 155.975H202.857C203.622 155.975 204.244 155.354 204.244 154.589V134.382C204.244 134.163 204.191 133.949 204.094 133.755V133.758ZM200.597 132.998H175.221V113.693H190.787L200.597 132.998ZM107.379 162.728C103.064 162.728 99.5526 159.217 99.5526 154.902C99.5526 150.587 103.064 147.076 107.379 147.076C111.398 147.076 114.714 150.118 115.153 154.02C115.075 154.195 115.028 154.386 115.028 154.589C115.028 154.824 115.092 155.041 115.194 155.235C115.017 159.395 111.581 162.726 107.376 162.726L107.379 162.728ZM182.246 162.728C177.93 162.728 174.419 159.217 174.419 154.902C174.419 150.587 177.93 147.076 182.246 147.076C186.561 147.076 190.072 150.587 190.072 154.902C190.072 159.217 186.561 162.728 182.246 162.728ZM192.707 153.205C191.891 148.165 187.512 144.305 182.246 144.305C176.979 144.305 172.6 148.165 171.784 153.205H165.605V113.693H172.447V134.385C172.447 135.15 173.069 135.771 173.834 135.771H201.468V153.205H192.704H192.707Z" fill="black"/>
<path d="M61.9335 114.316H102.705C103.47 114.316 104.091 113.695 104.091 112.93C104.091 112.164 103.47 111.543 102.705 111.543H61.9335C61.1681 111.543 60.5469 112.164 60.5469 112.93C60.5469 113.695 61.1681 114.316 61.9335 114.316Z" fill="black"/>
<path d="M101.42 133.464C101.42 132.698 100.799 132.077 100.034 132.077H64.6015C63.8361 132.077 63.2148 132.698 63.2148 133.464C63.2148 134.229 63.8361 134.85 64.6015 134.85H100.031C100.796 134.85 101.418 134.229 101.418 133.464H101.42Z" fill="black"/>
<path d="M112.636 123.197C112.636 122.431 112.015 121.81 111.25 121.81H53.3867C52.6212 121.81 52 122.431 52 123.197C52 123.962 52.6212 124.583 53.3867 124.583H111.25C112.015 124.583 112.636 123.962 112.636 123.197Z" fill="black"/>
</svg>
