<svg width="354" height="133" viewBox="0 0 354 133" fill="none" xmlns="http://www.w3.org/2000/svg">
<path d="M200.687 133V107.211C206.866 106.405 212.373 103.987 217.208 99.9575C222.312 95.6592 226.208 90.1522 228.894 83.4362C231.849 76.7202 233.327 69.467 233.327 61.6765H202.299V0.0239258H266.369V55.2291C266.369 71.8847 263.28 85.8539 257.101 97.1368C250.922 108.151 242.863 116.613 232.924 122.523C222.984 128.165 212.238 131.657 200.687 133ZM288.532 133V107.211C294.442 106.405 299.815 103.987 304.65 99.9575C309.754 95.6592 313.65 90.1522 316.336 83.4362C319.291 76.7202 320.768 69.467 320.768 61.6765H289.741V0.0239258H353.811V55.2291C353.811 71.8847 350.722 85.8539 344.543 97.1368C338.364 108.151 330.305 116.613 320.365 122.523C310.426 128.165 299.815 131.657 288.532 133Z" fill="#111111"/>
<path d="M153.909 0.0239258V25.8132C147.73 26.3505 142.089 28.7682 136.985 33.0665C132.149 37.3647 128.254 42.8718 125.299 49.5877C122.613 56.0351 121.27 63.154 121.27 70.9445H152.7V133H88.63V77.7948C88.63 60.8705 91.585 46.9013 97.495 35.8872C103.674 24.873 111.733 16.4109 121.672 10.5008C131.612 4.59079 142.358 1.09848 153.909 0.0239258ZM66.4673 0.0239258V25.8132C60.2886 26.3505 54.6472 28.7682 49.543 33.0665C44.7076 37.3647 40.8123 42.8718 37.8573 49.5877C35.1709 56.0351 33.8277 63.154 33.8277 70.9445H64.8554V133H0.785156V77.7948C0.785156 60.8705 3.8745 46.9013 10.0532 35.8872C16.2319 24.873 24.291 16.4109 34.2307 10.5008C44.1703 4.59079 54.9158 1.09848 66.4673 0.0239258Z" fill="#111111"/>
</svg>
