<svg width="61" height="67" viewBox="0 0 61 67" fill="none" xmlns="http://www.w3.org/2000/svg">
<path d="M30.5638 19.3506C31.5339 20.5502 32.1443 22.0359 32.3081 23.569H33.8748C33.7065 21.6809 32.969 19.8464 31.7771 18.3714C30.5087 16.8016 28.743 15.6479 26.8045 15.1231H26.8075C25.992 14.9028 25.1444 14.7896 24.2891 14.7896C23.1507 14.7896 22.0384 14.9854 20.9811 15.371C19.2139 16.0166 17.6272 17.2101 16.5118 18.734C15.4928 20.1248 14.867 21.7666 14.7003 23.4802C14.5121 25.4295 14.9313 27.4354 15.8845 29.1307C16.8852 30.9117 18.455 32.3514 20.3125 33.193C20.3599 33.219 20.4104 33.2419 20.4624 33.2603C20.8786 33.4408 21.3101 33.5923 21.7461 33.7117C22.2801 33.857 22.8279 33.9519 23.3802 34.0024V32.4356C22.9656 32.3897 22.5555 32.3163 22.1562 32.2061C21.7737 32.1021 21.3942 31.9674 21.0316 31.8068C21.0224 31.8022 21.0117 31.7976 21.001 31.793C19.4235 31.0892 18.0893 29.8728 17.2432 28.3657C16.446 26.9458 16.0941 25.2643 16.2517 23.6302C16.391 22.195 16.9158 20.821 17.768 19.6551C18.7044 18.3775 20.034 17.3753 21.5151 16.8352C22.3995 16.5124 23.3313 16.3487 24.2875 16.3487C25.0051 16.3487 25.7151 16.442 26.3975 16.6271C28.0209 17.0663 29.5004 18.0333 30.5638 19.3506Z" fill="black"/>
<path d="M21.4054 47.2127C21.2126 47.2127 21.0688 47.2066 20.9525 47.1699C20.7138 47.0934 20.5088 46.9404 20.4047 46.7598C20.3772 46.7124 20.3466 46.6405 20.3466 46.4921V43.4626C20.3466 43.4258 20.3466 43.3891 20.3496 43.3509C20.3527 43.2591 20.3558 43.1489 20.3481 43.028C20.3481 42.9423 20.3328 42.8582 20.3037 42.7771L20.3007 42.7694C20.1446 42.338 19.7361 42.2385 19.5617 42.1972L19.5448 42.1926C19.3536 42.1314 19.1608 42.0702 18.9695 42.006C17.9444 41.6663 17.0616 41.3297 16.2705 40.9747C15.7794 40.7544 15.3433 40.5371 14.9394 40.3107C14.843 40.2571 14.7481 40.202 14.6548 40.1469C14.5844 40.0965 14.4115 39.9832 14.1606 39.9832C14.0596 39.9832 13.9602 40.0016 13.8653 40.0383C13.6542 40.1209 13.5302 40.2709 13.4736 40.3413L11.382 42.5292C11.3606 42.5522 11.3377 42.5751 11.3162 42.5996C11.2703 42.6486 11.226 42.696 11.1908 42.7281C11.0485 42.8551 10.8373 42.9148 10.6476 42.8796C10.4854 42.849 10.3645 42.7572 10.2926 42.6853L6.01921 38.4073C5.932 38.3201 5.87998 38.2558 5.84938 38.1977C5.7591 38.0278 5.74992 37.8106 5.82643 37.6315C5.88916 37.4847 6.07276 37.3056 6.25178 37.1343C6.30992 37.0777 6.36806 37.0226 6.42314 36.966L8.3556 35.0182L8.36019 35.0136C8.40303 34.9754 8.48106 34.905 8.54991 34.801C8.61723 34.7015 8.66008 34.5975 8.68303 34.4751C8.7274 34.2379 8.67232 34.0053 8.51472 33.7819C8.48259 33.7299 8.45199 33.6779 8.42139 33.6259C8.29133 33.4056 8.16281 33.176 8.03888 32.9435C7.79713 32.486 7.56762 32.001 7.35647 31.5006C7.15145 31.0126 6.96172 30.5061 6.79189 29.9935C6.70926 29.7411 6.6297 29.4856 6.55626 29.23C6.51954 29.1015 6.48282 28.9715 6.44916 28.8414C6.43386 28.7848 6.42008 28.7282 6.40478 28.6716C6.38336 28.5461 6.32828 28.2722 6.06358 28.084C5.96872 28.0167 5.80806 27.9356 5.58621 27.9356C5.54949 27.9356 5.51736 27.9356 5.49134 27.9402H2.22622C2.09617 27.9402 1.97223 27.9402 1.88349 27.9203C1.80546 27.9035 1.66622 27.8561 1.60808 27.7291C1.57595 27.6587 1.56065 27.5592 1.56065 27.4231V21.6334C1.56065 21.3763 1.56065 21.1545 1.61267 20.9663C1.68458 20.7077 1.81005 20.4996 1.9554 20.3955C1.99059 20.3695 2.03802 20.3466 2.14207 20.3466H5.56326C5.66883 20.3512 5.76981 20.3374 5.86774 20.3037C6.30227 20.1538 6.40172 19.7468 6.43385 19.6122V19.606C6.49659 19.4133 6.55779 19.222 6.62205 19.0292C6.96172 18.0087 7.30292 17.1212 7.66707 16.3149C7.89199 15.8176 8.11385 15.377 8.34642 14.9669C8.40762 14.8583 8.46882 14.7527 8.53155 14.6517C8.70292 14.3916 8.70904 14.0673 8.55144 13.8072C8.46423 13.6542 8.34795 13.5624 8.28674 13.5149L7.20959 12.5097L6.04522 11.4233C5.97331 11.356 5.91058 11.2979 5.87539 11.2504C5.76216 11.0974 5.72238 10.8863 5.77287 10.7012C5.80194 10.5925 5.86468 10.4885 5.9626 10.3921L10.2391 6.10948C10.3294 6.01921 10.4135 5.95801 10.4961 5.92588C10.6706 5.85703 10.8817 5.87386 11.0439 5.96872C11.1097 6.0085 11.1877 6.08347 11.281 6.17834L12.958 7.8721L14.2203 8.94925L15.4703 8.19341C15.7366 8.05571 16.0166 7.91953 16.318 7.78336C16.8887 7.52631 17.5129 7.27385 18.2275 7.01221C18.5136 6.90664 18.8089 6.8026 19.1271 6.69396C19.2648 6.64653 19.4025 6.60063 19.5403 6.55473L19.7116 6.49812C19.8126 6.47211 20.062 6.40019 20.2272 6.14161C20.3604 5.93353 20.3573 5.7285 20.3512 5.63211V3.34469C20.3512 2.96829 20.3481 2.57813 20.3512 2.19715C20.3527 1.94622 20.6159 1.71671 20.8745 1.61879C20.9877 1.57595 21.1208 1.55912 21.3365 1.55912H27.2639C27.4644 1.55912 27.6158 1.60655 27.7291 1.70447C27.905 1.85748 27.9433 2.08087 27.9433 2.24152V5.67801C27.9417 5.69484 27.9402 5.7132 27.9417 5.73462V6.51648H28.5981C28.6456 6.52872 28.6854 6.53484 28.7144 6.53943H28.7175C28.8001 6.55932 28.8827 6.58074 28.9638 6.60216C30.4342 6.98161 31.848 7.54008 33.1638 8.26226C33.3336 8.3556 33.5019 8.45046 33.6641 8.54838C33.7054 8.57286 33.7483 8.59887 33.7911 8.62488C33.86 8.67078 34.0222 8.77483 34.2578 8.77483H34.3282L34.397 8.76259C34.5363 8.73658 34.6648 8.67537 34.7704 8.58357C34.827 8.53767 34.8683 8.49177 34.8943 8.4627L37.2414 6.12631C37.4694 5.89987 37.6346 5.86468 37.7387 5.85856H37.7784C37.9972 5.85856 38.1609 5.97637 38.2604 6.07429L42.4436 10.2483C42.5644 10.3691 42.6593 10.4686 42.7037 10.5589C42.8154 10.7899 42.7618 11.0837 42.5736 11.2734C42.2982 11.5503 42.0105 11.8319 41.7336 12.1027C41.5913 12.2419 41.449 12.3812 41.3083 12.5204L40.3153 13.4996L40.0291 13.7796C40.0291 13.7796 40.023 13.7873 40.02 13.7903L39.6114 14.2004L39.9679 14.7022L40.4652 15.5392C40.7559 16.0992 41.0374 16.7265 41.3343 17.4655C41.4949 17.8664 41.6525 18.2826 41.8147 18.74C41.8836 18.9344 41.9509 19.1271 42.0182 19.323C42.0488 19.4133 42.0794 19.5051 42.11 19.5969L42.1483 19.7086C42.1727 19.808 42.2401 20.0436 42.4787 20.2135C42.5736 20.2793 42.7312 20.3573 42.9485 20.3573C42.9837 20.3573 43.0143 20.3573 43.0372 20.3527H46.4584C46.5793 20.3527 46.746 20.4491 46.8914 20.6067C47.0658 20.7918 47.1806 21.0167 47.2066 21.2233C47.2219 21.3365 47.2188 21.4788 47.2142 21.6303C47.2127 21.7037 47.2112 21.7757 47.2112 21.8476V23.5735H48.7703V21.8476C48.7703 21.7879 48.7703 21.7267 48.7734 21.6655C48.778 21.4727 48.7825 21.2524 48.7519 21.0229C48.6831 20.4919 48.426 19.9656 48.0267 19.5403C47.5753 19.0598 47.0184 18.7936 46.4553 18.7936H43.4825C43.4167 18.6008 43.3493 18.4095 43.282 18.2183C43.1122 17.7424 42.9485 17.3064 42.7802 16.8871C42.39 15.9125 42.0182 15.1138 41.6204 14.3993L42.3992 13.6327C42.5399 13.495 42.6807 13.3573 42.8215 13.2196C43.1015 12.9442 43.3922 12.6612 43.6752 12.3766C44.3301 11.7171 44.5045 10.718 44.1067 9.8887C43.943 9.54903 43.7012 9.30729 43.5421 9.14816L39.359 4.97419C38.8908 4.50752 38.2772 4.26731 37.6377 4.30709C37.0869 4.34228 36.5835 4.58403 36.1382 5.02621L34.1308 7.02445C34.0574 6.98314 33.9839 6.94183 33.9105 6.90205C32.5242 6.14161 31.0416 5.54796 29.4993 5.1379V2.24305C29.4993 1.55606 29.2316 0.94557 28.7466 0.524807C28.3487 0.180546 27.8346 0 27.2609 0H21.3335C21.0596 0 20.697 0.0183606 20.3206 0.160655C19.4117 0.503386 18.7951 1.31584 18.7875 2.18338C18.7844 2.57354 18.7844 2.96829 18.7875 3.35081V5.16391C18.7309 5.1838 18.6742 5.20217 18.6192 5.22206C18.2902 5.33528 17.9857 5.44238 17.6889 5.55102C16.9392 5.82642 16.2797 6.09112 15.6753 6.365C15.1811 6.58686 14.742 6.80719 14.3243 7.04281L12.3857 5.08588C12.2236 4.92217 12.0583 4.76457 11.8319 4.62993C11.4968 4.43255 11.1127 4.32851 10.7211 4.32851C10.4441 4.32851 10.1748 4.379 9.92084 4.47998C9.63472 4.59321 9.37767 4.7661 9.13286 5.01244L4.85484 9.29657C4.56261 9.58881 4.3637 9.92848 4.26272 10.3033C4.09135 10.946 4.22293 11.6467 4.61769 12.1807C4.74009 12.346 4.87321 12.4699 4.98184 12.5709L6.90052 14.3626C6.67713 14.768 6.4614 15.201 6.24566 15.6799C5.85856 16.5352 5.49747 17.4716 5.14249 18.5457C5.11495 18.6283 5.08741 18.711 5.0614 18.7936H2.14207C1.72896 18.7936 1.36021 18.9083 1.04349 19.1363C0.610489 19.4484 0.278469 19.9503 0.110164 20.5501C0 20.9418 0 21.312 0 21.6379V27.4261C0 27.7933 0.062732 28.1085 0.192786 28.387C0.443714 28.9286 0.93945 29.3142 1.55453 29.4473C1.80699 29.5024 2.03956 29.5024 2.22775 29.5024H5.0155C5.0308 29.5559 5.0461 29.6095 5.0614 29.663C5.13943 29.9369 5.22512 30.2139 5.31539 30.4847C5.49747 31.037 5.70249 31.5833 5.92435 32.1096C6.15233 32.6512 6.40172 33.1776 6.66489 33.6764C6.76129 33.8584 6.86074 34.039 6.96172 34.2165L5.31998 35.872C5.27255 35.9194 5.22206 35.9684 5.17309 36.0158C4.90993 36.2698 4.5825 36.5865 4.39583 37.0256C4.13725 37.6346 4.16632 38.3476 4.47539 38.9306C4.6131 39.1922 4.79517 39.388 4.92064 39.5135L9.19559 43.7946C9.52302 44.122 9.93002 44.3377 10.3707 44.4188C10.5007 44.4433 10.6338 44.454 10.7654 44.454C11.3101 44.454 11.8319 44.2551 12.2343 43.8956C12.3215 43.8175 12.3949 43.7395 12.4592 43.6706C12.4775 43.6508 12.4944 43.6324 12.5127 43.6125L14.2998 41.7428C14.7114 41.9677 15.149 42.185 15.6356 42.4022C16.4756 42.7786 17.4074 43.1336 18.4815 43.4901C18.584 43.5238 18.6865 43.5574 18.789 43.5911V46.4951C18.789 46.8868 18.8762 47.2295 19.0552 47.5401C19.3521 48.0573 19.8723 48.4658 20.4828 48.6586C20.8087 48.7626 21.1193 48.7764 21.4069 48.7764H23.3837V47.2127H21.4054Z" fill="black"/>
<path d="M24.5703 24.8833V66.8632H60.7391V24.8833H24.5703ZM59.2091 65.3332H26.1004V26.4133H59.2091V65.3332Z" fill="black"/>
<path d="M35.9557 37.2412C36.9288 37.2412 37.7688 36.6735 38.1666 35.8519H54.6911V34.3218H38.3686C38.1528 33.1865 37.1552 32.3267 35.9557 32.3267C34.7561 32.3267 33.7601 33.1865 33.5428 34.3218H30.625V35.8519H33.7448C34.1426 36.6735 34.981 37.2412 35.9557 37.2412Z" fill="black"/>
<path d="M48.8402 48.2041C49.8822 48.2041 50.7712 47.5538 51.1277 46.6388H54.6911V45.1088H51.2103C50.9287 44.0622 49.9755 43.2896 48.8402 43.2896C47.7049 43.2896 46.7502 44.0622 46.4702 45.1088H30.625V46.6388H46.5528C46.9108 47.5538 47.7983 48.2041 48.8402 48.2041Z" fill="black"/>
<path d="M38.6333 58.916C39.6477 58.916 40.5183 58.3009 40.8932 57.4242H54.6911V55.8941H41.0232C40.7677 54.8093 39.7961 54.0015 38.6333 54.0015C37.4704 54.0015 36.4989 54.8093 36.2433 55.8941H30.625V57.4242H36.3734C36.7483 58.3009 37.6189 58.916 38.6333 58.916Z" fill="black"/>
</svg>
