<svg width="70" height="63" viewBox="0 0 70 63" fill="none" xmlns="http://www.w3.org/2000/svg">
<path d="M14.2265 32.9632C16.0488 32.9632 17.5666 31.6443 17.8802 29.9123H34.5379C34.8515 31.6443 36.3709 32.9632 38.1916 32.9632C40.0124 32.9632 41.5317 31.6443 41.8454 29.9123H45.5542V22.4946L41.6679 14.8459H33.1868V8.14893H7.26172V12.9319H8.79177V9.67897H31.6583V24.906H23.2752V26.436H31.6583V28.3823H17.8389C17.4472 26.7497 15.9769 25.5333 14.2265 25.5333C12.4761 25.5333 11.0057 26.7497 10.6141 28.3823H7.34281V29.9123H10.5727C10.8864 31.6443 12.4057 32.9632 14.2265 32.9632ZM38.1932 31.4332C36.989 31.4332 36.0082 30.4524 36.0082 29.2483C36.0082 28.0441 36.989 27.0634 38.1932 27.0634C39.3973 27.0634 40.3781 28.0441 40.3781 29.2483C40.3781 30.4524 39.3973 31.4332 38.1932 31.4332ZM43.5437 21.9132H36.2653V16.376H40.73L43.5437 21.9132ZM33.1884 16.376H34.7352V23.4433H44.0257V28.3823H41.8056C41.4139 26.7497 39.9435 25.5333 38.1932 25.5333C36.4428 25.5333 34.9724 26.7497 34.5807 28.3823H33.1884V16.376ZM14.2265 27.0634C15.4306 27.0634 16.4114 28.0441 16.4114 29.2483C16.4114 30.4524 15.4306 31.4332 14.2265 31.4332C13.0223 31.4332 12.0416 30.4524 12.0416 29.2483C12.0416 28.0441 13.0223 27.0634 14.2265 27.0634Z" fill="black"/>
<path d="M15.7911 15.0449H2.73828V16.575H15.7911V15.0449Z" fill="black"/>
<path d="M14.936 21.6196H3.59375V23.1497H14.936V21.6196Z" fill="black"/>
<path d="M18.5243 18.333H0V19.8631H18.5243V18.333Z" fill="black"/>
<path d="M8.90586 35.0347L7.41406 35.3743C8.67788 40.9131 11.5329 45.9225 15.6702 49.8624C19.8212 53.8145 24.9836 56.4232 30.6019 57.404L30.8651 55.8969C25.5467 54.9681 20.6566 52.4986 16.7259 48.7546C12.8075 45.0228 10.1039 40.2781 8.90739 35.0347H8.90586Z" fill="black"/>
<path d="M35.6074 1.53005C48.7781 1.53005 60.0974 10.9092 62.5256 23.832L64.0296 23.549C61.4652 9.904 49.5125 0 35.6074 0C29.7871 0 24.178 1.7213 19.3828 4.97571L20.2427 6.24106C24.7823 3.15802 30.0962 1.52852 35.6074 1.52852V1.53005Z" fill="black"/>
<path d="M69.063 36.1043C68.529 33.3854 67.2117 31.0108 65.2563 29.0554C65.1094 28.907 64.9441 28.78 64.7636 28.6759C62.7363 27.5039 60.276 29.7378 58.9724 31.1072C58.2655 31.8493 57.5601 32.7076 57.0415 33.592C56.3698 34.738 55.9444 36.2099 57.0231 37.2886L59.8307 40.0962V40.0993C59.8445 40.113 59.8552 40.1253 59.8644 40.1421C60.1765 40.6975 59.3656 42.4188 59.1085 42.8993C58.1125 44.7552 56.5824 46.5729 55.0937 48.054C53.6019 49.5412 51.7735 51.0667 49.9068 52.0581C49.4463 52.3029 47.7051 53.1139 47.1757 52.8079C47.1635 52.8017 47.1543 52.7941 47.1451 52.7849L44.3359 49.9757C43.2573 48.8971 41.7854 49.3224 40.6393 49.9941C39.7535 50.5128 38.8966 51.2181 38.1546 51.925C36.7852 53.2286 34.5513 55.6889 35.7233 57.7162C35.8274 57.8953 35.9559 58.062 36.1028 58.2089C38.2158 60.3219 40.7908 61.7097 43.7484 62.1855C50.5112 63.2718 57.4087 59.3886 61.9927 54.7036C64.4377 52.205 66.5262 49.2061 67.8512 45.9624C69.1212 42.8564 69.7164 39.4291 69.063 36.1043ZM37.4324 56.8793C36.2542 55.7012 42.0837 50.3766 43.0094 51.3023L45.8186 54.1115C49.7049 57.9978 65.1063 42.7141 61.1603 38.7697H61.1588L58.3512 35.9605C57.4255 35.0348 62.7501 29.2053 63.9282 30.3835C76.9367 43.3919 50.73 70.1785 37.4324 56.8793Z" fill="black"/>
<path d="M45.0691 45.4624C45.0691 41.9463 47.9288 39.0867 51.4448 39.0867V37.5566C47.0857 37.5566 43.5391 41.1033 43.5391 45.4624H45.0691Z" fill="black"/>
<path d="M51.6499 32.4263C44.5796 32.4263 38.8281 38.1777 38.8281 45.2481H40.3582C40.3582 39.0223 45.4242 33.9563 51.6499 33.9563V32.4263Z" fill="black"/>
</svg>
