<svg width="70" height="59" viewBox="0 0 70 59" fill="none" xmlns="http://www.w3.org/2000/svg">
<path d="M12.7379 17.4045C11.3808 17.4045 10.2806 16.3043 10.2806 14.9471C10.2806 13.5899 11.3808 12.4897 12.7379 12.4897C14.0951 12.4897 15.1953 13.5899 15.1953 14.9471C15.1953 16.3043 14.0951 17.4045 12.7379 17.4045Z" fill="black"/>
<path d="M24.609 17.4045C23.2519 17.4045 22.1517 16.3043 22.1517 14.9471C22.1517 13.5899 23.2519 12.4897 24.609 12.4897C25.9662 12.4897 27.0664 13.5899 27.0664 14.9471C27.0664 16.3043 25.9662 17.4045 24.609 17.4045Z" fill="black"/>
<path d="M36.484 17.4045C35.1269 17.4045 34.0267 16.3043 34.0267 14.9471C34.0267 13.5899 35.1269 12.4897 36.484 12.4897C37.8412 12.4897 38.9414 13.5899 38.9414 14.9471C38.9414 16.3043 37.8412 17.4045 36.484 17.4045Z" fill="black"/>
<path d="M5.35717 0.620605H43.8672C46.8204 0.620605 49.2227 2.86223 49.2227 5.61951V24.2763C49.2227 27.032 46.8204 29.2752 43.8672 29.2752H17.6578L13.7315 38.332L9.7226 29.2752H5.35717C2.40403 29.2752 0.00174332 27.0335 0.00174332 24.2763V5.61951C0.00174332 2.86376 2.40403 0.620605 5.35717 0.620605ZM1.53033 24.2763C1.53033 26.1889 3.2456 27.7451 5.35564 27.7451H9.04628H10.7187L11.3966 29.2752L13.7177 34.5189L15.99 29.2752L16.6525 27.7451H43.8672C45.9773 27.7451 47.6925 26.1889 47.6925 24.2763V5.61951C47.6925 3.70686 45.9773 2.15073 43.8672 2.15073H5.35564C3.2456 2.15073 1.53033 3.70686 1.53033 5.61951V24.2763Z" fill="black"/>
<path d="M25.6067 30.5409L25.6021 32.071V45.5958C25.6021 46.6638 26.6319 47.5344 27.8973 47.5344H54.6606L55.3232 49.0645L57.7423 54.6479L60.215 49.0645L60.8913 47.5344H62.5652H66.1044C67.3698 47.5344 68.3996 46.6653 68.3996 45.5958V26.939C68.3996 25.871 67.3698 25.0003 66.1044 25.0003H50.517C50.517 24.9881 50.5201 24.9743 50.5201 24.9621C50.5278 24.8397 50.5324 24.7173 50.5324 24.5933V23.4702H66.1044C68.2144 23.4702 69.9297 25.0263 69.9297 26.939V45.5958C69.9297 47.5084 68.2144 49.0645 66.1044 49.0645H61.8874L57.7285 58.4625L53.6553 49.0645H27.8958C25.7857 49.0645 24.0704 47.5084 24.0704 45.5958V30.5409H25.6067Z" fill="black"/>
<path d="M34.9762 38.6794C33.6191 38.6794 32.5188 37.5792 32.5188 36.222C32.5188 34.8649 33.6191 33.7646 34.9762 33.7646C36.3334 33.7646 37.4336 34.8649 37.4336 36.222C37.4336 37.5792 36.3334 38.6794 34.9762 38.6794Z" fill="black"/>
<path d="M46.8473 38.6794C45.4901 38.6794 44.3899 37.5792 44.3899 36.222C44.3899 34.8649 45.4901 33.7646 46.8473 33.7646C48.2045 33.7646 49.3047 34.8649 49.3047 36.222C49.3047 37.5792 48.2045 38.6794 46.8473 38.6794Z" fill="black"/>
<path d="M58.7223 38.6794C57.3651 38.6794 56.2649 37.5792 56.2649 36.222C56.2649 34.8649 57.3651 33.7646 58.7223 33.7646C60.0795 33.7646 61.1797 34.8649 61.1797 36.222C61.1797 37.5792 60.0795 38.6794 58.7223 38.6794Z" fill="black"/>
</svg>
